# Blender v2.79 (sub 0) OBJ File: 'lowpolyassets.blend'
# www.blender.org
mtllib cloud.mtl
o cloud
v -0.202041 0.482784 -2.113240
v 0.220126 -0.675548 -1.873201
v 0.642293 -0.289935 -0.754874
v 0.220126 0.868397 -0.994913
v -0.561260 -0.112318 -1.067108
v 1.001511 0.305167 -1.801006
v -0.096499 0.965174 -1.614086
v 0.489540 0.542751 -2.218656
v -0.096500 -0.192785 -2.272802
v -0.682539 0.229638 -1.668232
v 0.806165 -0.325998 -2.038627
v 0.536751 -0.772325 -1.254028
v -0.365913 -0.639112 -1.488203
v 1.122790 -0.036788 -1.199882
v 0.536751 0.385634 -0.595312
v -0.049288 -0.349902 -0.649458
v 0.806165 0.831961 -1.379911
v -0.365913 0.518847 -0.829487
v -0.448515 0.623974 -1.363551
v 0.419692 0.855911 -1.771273
v -0.448515 -0.233773 -1.851489
v 0.419692 -0.001836 -2.259211
v 0.020560 0.194686 -0.608904
v 0.888766 0.426622 -1.016625
v 0.020560 -0.663061 -1.096841
v 0.888766 -0.431125 -1.504562
v -0.396132 0.815454 -1.037264
v 0.220126 -0.875419 -0.686868
v 0.836383 -0.312522 0.945607
v 0.220126 1.378350 0.595211
v -0.920500 -0.053246 0.489824
v 1.360751 0.556177 -0.581482
v -0.242067 1.519620 -0.308626
v 0.613402 0.902990 -1.191145
v -0.242067 -0.170707 -1.270185
v -1.097536 0.445923 -0.387666
v 1.075595 -0.365164 -0.928348
v 0.682319 -1.016688 0.216968
v -0.635343 -0.822231 -0.124869
v 1.537788 0.057008 0.296008
v 0.682319 0.673638 1.178527
v -0.173150 -0.400059 1.099488
v 1.075595 1.325163 0.033211
v -0.635343 0.868095 0.836690
v -0.755920 1.021555 0.057092
v 0.511442 1.360123 -0.538078
v -0.755920 -0.230539 -0.655174
v 0.511441 0.108029 -1.250344
v -0.071190 0.394902 1.158687
v 1.196172 0.733470 0.563517
v -0.071190 -0.857192 0.446421
v 1.196172 -0.518624 -0.148749
v -0.598989 0.018718 1.176963
v 0.211266 0.018718 0.366708
v 1.021521 0.018718 1.176963
v 0.211266 0.018718 1.987218
v 0.211266 -0.791538 1.176963
v 0.211266 0.828973 1.176963
v -0.396425 0.018718 1.784654
v -0.396425 0.626409 1.176963
v -0.396425 0.018718 0.569272
v -0.396425 -0.588974 1.176963
v 0.211266 0.626409 0.569272
v 0.818958 0.018718 0.569272
v 0.211266 -0.588974 0.569272
v 0.818958 0.626409 1.176963
v 0.818958 0.018718 1.784654
v 0.818958 -0.588974 1.176963
v 0.211266 0.626409 1.784654
v 0.211266 -0.588974 1.784654
v -0.238876 -0.431424 1.627105
v -0.238876 0.468859 1.627105
v -0.238876 -0.431424 0.726821
v -0.238876 0.468859 0.726821
v 0.661408 -0.431424 1.627105
v 0.661408 0.468859 1.627105
v 0.661408 -0.431424 0.726821
v 0.661408 0.468859 0.726821
vt 0.173029 0.911645
vt 0.213819 0.837704
vt 0.260701 0.894019
vt 0.000000 0.753997
vt 0.002657 0.659488
vt 0.064819 0.682697
vt 0.688574 0.635900
vt 0.681881 0.549510
vt 0.755865 0.550622
vt 0.779068 0.607187
vt 0.791860 0.678525
vt 0.166961 0.727452
vt 0.074756 0.756792
vt 0.282532 0.597712
vt 0.347324 0.655149
vt 0.283008 0.669979
vt 0.637910 0.925952
vt 0.549642 0.887243
vt 0.596525 0.830928
vt 0.173029 0.805892
vt 0.098265 0.805892
vt 0.179722 0.712605
vt 0.221622 0.626325
vt 0.270216 0.741318
vt 0.247012 0.797883
vt 0.681881 0.705794
vt 0.607125 0.708590
vt 0.617062 0.634495
vt 0.508852 0.813301
vt 0.575219 0.761047
vt 0.514920 0.679249
vt 0.583616 0.757690
vt 0.302087 0.798995
vt 0.336190 0.879412
vt 0.925039 0.469177
vt 0.995872 0.461302
vt 0.995872 0.535385
vt 0.554004 0.591377
vt 0.856176 0.597468
vt 0.856176 0.693356
vt 0.977123 0.731427
vt 0.929167 0.669269
vt 0.977123 0.623593
vt 0.672013 0.757690
vt 0.672013 0.845534
vt 0.611053 0.549510
vt 0.679225 0.611285
vt 0.896731 0.302466
vt 0.846729 0.226551
vt 0.896731 0.193959
vt 0.347324 0.751037
vt 0.070828 0.597712
vt 0.127877 0.639579
vt 0.336190 0.967256
vt 0.239396 0.963900
vt 0.730474 0.722180
vt 1.000000 0.623593
vt 0.929167 0.615717
vt 1.000000 0.549510
vt 0.173029 0.798995
vt 0.508852 0.757690
vt 0.791385 0.750793
vt 0.896731 0.269875
vt 0.946734 0.193959
vt 0.946734 0.302466
vt 0.946734 0.256117
vt 0.994690 0.193959
vt 0.994690 0.301793
vt 0.508852 0.468331
vt 0.568396 0.360396
vt 0.636832 0.442601
vt 0.252579 0.228136
vt 0.256457 0.090177
vt 0.347198 0.124056
vt 0.264196 0.429998
vt 0.254426 0.303890
vt 0.362423 0.305513
vt 0.396294 0.388084
vt 0.414967 0.492220
vt 0.496300 0.189386
vt 0.361704 0.232216
vt 0.159847 0.303890
vt 0.254426 0.387733
vt 0.160541 0.409382
vt 0.693550 0.245619
vt 0.564701 0.189114
vt 0.633137 0.106909
vt 0.505157 0.303890
vt 0.396020 0.303890
vt 0.009770 0.471604
vt 0.070934 0.345658
vt 0.141868 0.513519
vt 0.107997 0.596089
vt 0.252579 0.228136
vt 0.143453 0.232217
vt 0.157959 0.124057
vt 0.505157 0.081178
vt 0.602036 0.004900
vt 0.008858 0.189387
vt 0.109137 0.303890
vt 0.697244 0.303890
vt 0.747026 0.421280
vt 0.743331 0.205455
vt 0.846729 0.193959
vt 0.846729 0.302101
vt 0.065910 0.061115
vt 0.508852 0.373897
vt 0.508852 0.513869
vt 0.991348 0.157411
vt 0.921344 0.066676
vt 0.991348 0.000000
vt 0.743331 0.000000
vt 0.743331 0.128230
vt 0.149187 0.000000
vt 0.248701 0.090177
vt 0.929167 0.707903
vt 0.856176 0.597086
vt 0.929167 0.549510
vt 0.254426 0.527705
vt 0.355970 0.000000
vt 0.439247 0.061115
vt 0.747025 0.549510
vt 0.605731 0.544610
vt 0.325360 0.555945
vt 0.072991 0.870791
vt 0.153028 0.805892
vt 0.153028 0.945601
vt 0.000000 0.597712
vt 0.000000 0.303890
vt 0.414273 0.597712
vt 0.000000 0.916710
vt 0.072991 0.805892
vt 0.072991 0.964286
vt 0.925039 0.394626
vt 0.995043 0.303890
vt 0.995043 0.461302
vt 0.838056 0.460857
vt 0.775444 0.497849
vt 0.747026 0.436270
vt 0.778232 0.396204
vt 0.838097 0.360977
vt 0.898391 0.396204
vt 0.925039 0.436270
vt 0.505555 0.740228
vt 0.443003 0.739373
vt 0.451815 0.672307
vt 0.915468 0.337772
vt 0.622355 1.000000
vt 0.567846 0.968992
vt 0.622355 0.925952
vt 0.991395 0.832725
vt 0.965396 0.914373
vt 0.903497 0.882647
vt 0.903932 0.818528
vt 0.922756 0.761476
vt 0.681881 0.893309
vt 0.682271 0.806482
vt 0.735621 0.825387
vt 0.830314 0.156966
vt 0.772766 0.193959
vt 0.743331 0.132379
vt 0.769979 0.092313
vt 0.830273 0.057086
vt 0.890138 0.092313
vt 0.921344 0.132379
vt 0.498606 0.867728
vt 0.498606 0.949661
vt 0.429967 0.938978
vt 0.411143 0.881925
vt 0.410708 0.817807
vt 0.440989 0.597712
vt 0.505165 0.653401
vt 0.752902 0.033882
vt 0.832079 0.000000
vt 0.358106 0.712341
vt 0.394578 0.632486
vt 0.416811 0.786080
vt 0.840113 0.813416
vt 0.908375 0.981432
vt 0.840113 0.981432
vt 0.853909 0.914373
vt 0.829330 0.865422
vt 0.840113 0.939160
vt 0.770625 0.939160
vt 0.744433 0.892454
vt 0.755255 0.337772
vt 0.836291 0.303890
vt 0.347324 0.887037
vt 0.359145 0.800562
vt 0.895604 0.497849
vt 0.746447 0.750793
vt 0.991395 0.750793
vt 0.892926 0.193959
vt 0.472607 0.786080
vt 0.567846 0.994370
vt 0.508852 0.972534
vt 0.567846 0.925952
vt 0.347324 0.786080
vt 0.851934 0.899892
vt 0.913114 0.033882
vt 0.792858 0.785566
vt 0.976637 0.981432
vt 0.908375 0.981432
vt 0.962841 0.914373
vn -0.0562 0.7239 -0.6877
vn -0.1579 0.0935 -0.9830
vn -0.7685 0.0309 -0.6391
vn -0.6667 0.6613 -0.3437
vn 0.2187 -0.5331 -0.8173
vn 0.4468 -0.8622 -0.2388
vn -0.2187 -0.9749 -0.0405
vn -0.4468 -0.6459 -0.6190
vn 0.7685 -0.5336 0.3531
vn 0.6667 0.0425 0.7441
vn 0.0562 -0.2212 0.9736
vn 0.1579 -0.7972 0.5827
vn 0.4936 0.7234 0.4828
vn 0.0620 0.9981 -0.0001
vn -0.4936 0.7847 0.3751
vn -0.0620 0.5099 0.8580
vn -0.9556 0.2236 0.1918
vn -0.9007 -0.4300 -0.0629
vn -0.5708 -0.6313 0.5250
vn -0.6258 0.0222 0.7797
vn 0.9556 0.2791 0.0941
vn 0.9007 -0.2738 -0.3374
vn 0.5708 0.1287 -0.8110
vn 0.6258 0.6815 -0.3794
vn -0.1579 0.7972 -0.5827
vn -0.0562 0.2212 -0.9736
vn -0.6667 -0.0425 -0.7441
vn -0.7685 0.5336 -0.3531
vn 0.0620 -0.5099 -0.8580
vn 0.4936 -0.7847 -0.3751
vn -0.0620 -0.9981 0.0001
vn -0.4936 -0.7234 -0.4828
vn 0.6667 -0.6613 0.3437
vn 0.7685 -0.0309 0.6391
vn 0.1579 -0.0935 0.9830
vn 0.0562 -0.7239 0.6877
vn 0.4468 0.6459 0.6190
vn 0.2187 0.9749 0.0405
vn -0.4468 0.8622 0.2388
vn -0.2187 0.5331 0.8173
vn -0.9007 0.2738 0.3374
vn -0.9556 -0.2791 -0.0941
vn -0.6258 -0.6815 0.3794
vn -0.5708 -0.1287 0.8110
vn 0.9007 0.4300 0.0629
vn 0.9556 -0.2236 -0.1918
vn 0.6258 -0.0222 -0.7797
vn 0.5708 0.6313 -0.5250
vn -0.8675 0.4048 0.2892
vn -0.8675 0.2892 -0.4048
vn -0.8675 -0.4048 -0.2892
vn -0.8675 -0.2892 0.4048
vn -0.2892 0.4048 -0.8675
vn 0.4048 0.2892 -0.8675
vn 0.2892 -0.4048 -0.8675
vn -0.4048 -0.2892 -0.8675
vn 0.8675 0.4048 -0.2892
vn 0.8675 0.2892 0.4048
vn 0.8675 -0.4048 0.2892
vn 0.8675 -0.2892 -0.4048
vn 0.2892 0.4048 0.8675
vn -0.4048 0.2892 0.8675
vn -0.2892 -0.4048 0.8675
vn 0.4048 -0.2892 0.8675
vn -0.4048 -0.8675 0.2892
vn -0.2892 -0.8675 -0.4048
vn 0.4048 -0.8675 -0.2892
vn 0.2892 -0.8675 0.4048
vn 0.4048 0.8675 0.2892
vn 0.2892 0.8675 -0.4048
vn -0.4048 0.8675 -0.2892
vn -0.2892 0.8675 0.4048
vn -0.8675 0.2892 0.4048
vn -0.8675 0.4048 -0.2892
vn -0.8675 -0.2892 -0.4048
vn -0.8675 -0.4048 0.2892
vn -0.4048 0.2892 -0.8675
vn 0.2892 0.4048 -0.8675
vn 0.4048 -0.2892 -0.8675
vn -0.2892 -0.4048 -0.8675
vn 0.8675 0.2892 -0.4048
vn 0.8675 0.4048 0.2892
vn 0.8675 -0.2892 0.4048
vn 0.8675 -0.4048 -0.2892
vn 0.4048 0.2892 0.8675
vn -0.2892 0.4048 0.8675
vn -0.4048 -0.2892 0.8675
vn 0.2892 -0.4048 0.8675
vn -0.2892 -0.8675 0.4048
vn -0.4048 -0.8675 -0.2892
vn 0.2892 -0.8675 -0.4048
vn 0.4048 -0.8675 0.2892
vn 0.2892 0.8675 0.4048
vn 0.4048 0.8675 -0.2892
vn -0.2892 0.8675 -0.4048
vn -0.4048 0.8675 0.2892
f 1/1/1 7/2/1 20/3/1
f 1/4/2 8/5/2 22/6/2
f 1/7/3 9/8/3 21/9/3
f 1/7/4 10/10/4 19/11/4
f 2/12/5 9/13/5 22/6/5
f 2/14/6 11/15/6 26/16/6
f 2/17/7 12/18/7 25/19/7
f 2/12/8 13/20/8 21/21/8
f 3/22/9 12/23/9 26/16/9
f 3/22/10 14/24/10 24/25/10
f 3/26/11 15/27/11 23/28/11
f 3/29/12 16/30/12 25/19/12
f 4/31/13 15/27/13 24/32/13
f 4/33/14 17/34/14 20/3/14
f 4/35/15 7/36/15 19/37/15
f 4/31/16 18/38/16 23/28/16
f 5/39/17 18/40/17 19/11/17
f 5/41/18 10/42/18 21/43/18
f 5/44/19 13/45/19 25/19/19
f 5/46/20 16/47/20 23/28/20
f 6/48/21 17/49/21 24/50/21
f 6/51/22 14/24/22 26/16/22
f 6/52/23 11/53/23 22/6/23
f 6/54/24 8/55/24 20/3/24
f 8/55/25 1/1/25 20/3/25
f 9/13/26 1/4/26 22/6/26
f 10/10/27 1/7/27 21/9/27
f 7/56/28 1/7/28 19/11/28
f 11/53/29 2/12/29 22/6/29
f 12/57/30 2/58/30 26/59/30
f 13/45/31 2/17/31 25/19/31
f 9/13/32 2/12/32 21/21/32
f 14/24/33 3/22/33 26/16/33
f 15/60/34 3/22/34 24/25/34
f 16/47/35 3/26/35 23/28/35
f 12/18/36 3/29/36 25/19/36
f 17/61/37 4/31/37 24/32/37
f 7/2/38 4/33/38 20/3/38
f 18/40/39 4/62/39 19/11/39
f 15/27/40 4/31/40 23/28/40
f 10/10/41 5/39/41 19/11/41
f 13/63/42 5/64/42 21/65/42
f 16/30/43 5/44/43 25/19/43
f 18/38/44 5/46/44 23/28/44
f 14/66/45 6/67/45 24/68/45
f 11/15/46 6/51/46 26/16/46
f 8/5/47 6/52/47 22/6/47
f 17/34/48 6/54/48 20/3/48
f 27/69/1 33/70/1 46/71/1
f 27/72/2 34/73/2 48/74/2
f 27/75/3 35/76/3 47/77/3
f 27/75/4 36/78/4 45/79/4
f 28/80/5 35/81/5 48/74/5
f 28/82/6 37/83/6 52/84/6
f 28/85/7 38/86/7 51/87/7
f 28/80/8 39/88/8 47/89/8
f 29/90/9 38/91/9 52/84/9
f 29/90/10 40/92/10 50/93/10
f 29/94/11 41/95/11 49/96/11
f 29/97/12 42/98/12 51/87/12
f 30/99/13 41/95/13 50/100/13
f 30/101/14 43/102/14 46/71/14
f 30/103/15 33/104/15 45/105/15
f 30/99/16 44/106/16 49/96/16
f 31/107/17 44/108/17 45/79/17
f 31/109/18 36/110/18 47/111/18
f 31/112/19 39/113/19 51/87/19
f 31/114/20 42/115/20 49/96/20
f 32/116/21 43/117/21 50/118/21
f 32/119/22 40/92/22 52/84/22
f 32/120/23 37/121/23 48/74/23
f 32/122/24 34/123/24 46/71/24
f 34/123/25 27/69/25 46/71/25
f 35/81/26 27/72/26 48/74/26
f 36/78/27 27/75/27 47/77/27
f 33/124/28 27/75/28 45/79/28
f 37/121/29 28/80/29 48/74/29
f 38/125/30 28/126/30 52/127/30
f 39/113/31 28/85/31 51/87/31
f 35/81/32 28/80/32 47/89/32
f 40/92/33 29/90/33 52/84/33
f 41/128/34 29/90/34 50/93/34
f 42/115/35 29/94/35 49/96/35
f 38/86/36 29/97/36 51/87/36
f 43/129/37 30/99/37 50/100/37
f 33/70/38 30/101/38 46/71/38
f 44/108/39 30/130/39 45/79/39
f 41/95/40 30/99/40 49/96/40
f 36/78/41 31/107/41 45/79/41
f 39/131/42 31/132/42 47/133/42
f 42/98/43 31/112/43 51/87/43
f 44/106/44 31/114/44 49/96/44
f 40/134/45 32/135/45 50/136/45
f 37/83/46 32/119/46 52/84/46
f 34/73/47 32/120/47 48/74/47
f 43/102/48 32/122/48 46/71/48
f 53/137/49 59/138/49 72/139/49
f 53/137/50 60/140/50 74/141/50
f 53/137/51 61/142/51 73/143/51
f 53/144/52 62/145/52 71/146/52
f 54/147/53 61/142/53 74/141/53
f 54/148/54 63/149/54 78/150/54
f 54/151/55 64/152/55 77/153/55
f 54/151/56 65/154/56 73/155/56
f 55/156/57 64/157/57 78/158/57
f 55/159/58 66/160/58 76/161/58
f 55/159/59 67/162/59 75/163/59
f 55/159/60 68/164/60 77/165/60
f 56/166/61 67/167/61 76/168/61
f 56/166/62 69/169/62 72/170/62
f 56/171/63 59/172/63 71/146/63
f 56/173/64 70/174/64 75/163/64
f 57/175/65 70/176/65 71/146/65
f 57/175/66 62/145/66 73/177/66
f 57/178/67 65/154/67 77/153/67
f 57/179/68 68/180/68 75/181/68
f 58/182/69 69/183/69 76/184/69
f 58/182/70 66/185/70 78/158/70
f 58/186/71 63/187/71 74/141/71
f 58/188/72 60/189/72 72/170/72
f 60/140/73 53/137/73 72/139/73
f 61/142/74 53/137/74 74/141/74
f 62/190/75 53/137/75 73/143/75
f 59/172/76 53/144/76 71/146/76
f 63/187/77 54/147/77 74/141/77
f 64/157/78 54/191/78 78/158/78
f 65/154/79 54/151/79 77/153/79
f 61/192/80 54/151/80 73/155/80
f 66/185/81 55/156/81 78/158/81
f 67/162/82 55/159/82 76/161/82
f 68/164/83 55/159/83 75/163/83
f 64/193/84 55/159/84 77/165/84
f 69/169/85 56/166/85 76/168/85
f 59/194/86 56/166/86 72/170/86
f 70/195/87 56/196/87 71/197/87
f 67/162/88 56/173/88 75/163/88
f 62/145/89 57/175/89 71/146/89
f 65/198/90 57/175/90 73/177/90
f 68/199/91 57/178/91 77/153/91
f 70/174/92 57/200/92 75/163/92
f 66/185/93 58/182/93 76/184/93
f 63/201/94 58/182/94 78/158/94
f 60/202/95 58/203/95 74/204/95
f 69/169/96 58/188/96 72/170/96
