# Blender v2.79 (sub 0) OBJ File: 'Cloud_4.blend'
# www.blender.org
mtllib cloud4.mtl
o cloud4
v 1.224633 -0.731664 -0.703742
v 0.826702 -1.050882 -0.460812
v 0.573572 -0.694170 -0.009183
v 0.311640 -0.732821 -0.240513
v 0.337259 -0.898739 -0.724086
v 1.154484 -0.684936 -0.215484
v 1.313301 -0.128896 -0.551246
v 0.840004 -0.581756 -1.146413
v 0.219280 -0.104865 -0.530427
v 0.721332 0.181372 -0.530185
v 0.467918 0.085465 -0.354057
v 0.264471 -0.138247 -0.924367
v 0.860633 -0.003664 -0.968203
v -0.896123 0.221173 0.349002
v -0.758420 0.326368 -0.611913
v -1.103535 0.852393 -0.555255
v -0.862191 1.268390 -0.158389
v -0.650347 0.007152 -0.158389
v -1.261759 0.238643 -0.081432
v -0.140572 0.476278 -0.156125
v -0.494969 0.476278 0.481049
v -1.285278 0.849848 0.228270
v -1.376877 0.605911 -0.081432
v -0.565395 0.735933 -0.668881
v -0.717846 1.040832 0.395254
v -0.250780 1.036900 -0.081432
v 0.559025 -0.501001 0.600754
v 0.364288 -0.351330 0.919893
v 0.143326 -0.244086 0.600754
v 0.974724 0.171615 0.600754
v 0.802367 -0.351330 0.884580
v 0.954377 -0.280579 0.600754
v 0.756700 -0.431590 0.457137
v 0.314684 -0.431589 0.600754
v 0.483521 -0.431590 0.368374
v 1.001044 -0.036235 0.457136
v 0.914102 0.090013 0.930910
v 0.117006 -0.036235 0.744373
v 0.354753 0.090013 1.040477
v 0.163673 0.208109 0.600754
v 0.678202 0.429979 0.687341
v 0.361350 0.359120 0.744372
v 0.361350 0.359120 0.457136
v 0.878247 0.216034 0.357821
v -0.569386 -0.448212 0.444520
v -1.180228 -0.627028 -0.584248
v -0.569386 -0.448212 -0.370300
v -1.016404 0.082398 0.809192
v -1.268213 0.720369 0.137423
v -1.198704 -0.872153 0.248121
v -1.132948 -0.507553 0.728589
v -0.470936 -0.509058 0.037110
v -0.805513 -0.843769 0.037110
v -1.788648 -0.507549 0.248120
v -1.676471 -0.668439 -0.153704
v -0.674641 -0.101640 0.664056
v -1.582805 0.178119 0.654734
v -1.939104 -0.143170 0.037110
v -0.674641 -0.101640 -0.589836
v -1.380128 -0.143169 -0.732257
v -0.596833 0.305778 0.424582
v -1.786914 0.304268 -0.179237
v -0.596833 0.305778 -0.350362
v -0.722731 0.557571 0.037110
v -1.080060 0.423748 -0.584248
v 1.486272 -0.356020 0.641650
v 0.340478 -0.422829 0.024024
v 1.030809 -0.482173 -0.667454
v 1.690381 -0.482170 -0.192322
v 0.472854 0.270312 0.431434
v 0.472854 0.270312 -0.383386
v 1.692116 0.329651 0.235034
v 1.102172 0.694252 -0.186986
v 0.965052 -0.846773 0.235035
v 1.358244 -0.818389 0.024024
v 0.500301 -0.483678 0.411496
v 0.770981 -0.818390 -0.166788
v 0.500301 -0.483679 -0.363448
v 1.842572 -0.034731 0.024024
v 0.919872 -0.260298 0.796105
v 0.578109 -0.076260 0.650970
v 0.578109 -0.076260 -0.602922
v 1.283596 -0.034731 -0.745343
v 0.374404 0.331158 0.024024
v 1.036416 0.329652 -0.667455
v 1.083697 0.449128 0.645382
v 1.579937 0.490538 -0.166790
v 0.708981 0.665869 0.024024
v -0.938410 -0.576912 -0.248265
v -0.323912 -0.753856 -0.699983
v -0.000201 0.941156 -0.248266
v -0.177141 -1.047396 0.296314
v -0.092289 -0.576913 0.916315
v 0.758830 -0.576910 0.303199
v 0.330237 -1.010769 0.024024
v -0.793653 -0.784522 0.270253
v 0.438737 -0.576912 -0.695725
v 0.955218 0.000469 0.024024
v 0.233909 0.000470 1.016822
v -0.672787 0.307884 0.821013
v -0.676457 -0.053120 -0.784993
v -1.132560 -0.106710 0.024024
v 0.233909 0.000469 -0.968774
v -0.936172 0.470670 -0.255151
v -0.085053 0.470672 -0.868267
v 0.761068 0.470670 -0.248266
v 0.146570 0.647615 0.748031
v 0.616312 0.678281 0.270252
v -0.507579 0.904529 0.024024
vt 0.849251 0.320271
vt 0.927156 0.301159
vt 0.894319 0.376349
vt 0.270565 0.915069
vt 0.244604 0.870658
vt 0.334738 0.823447
vt 0.363029 0.964564
vt 0.367932 0.853429
vt 0.870848 0.000000
vt 0.939558 0.053358
vt 0.811020 0.066459
vt 0.839001 0.150774
vt 0.884196 0.121743
vt 0.204292 0.975700
vt 0.121118 0.958554
vt 0.204292 0.904584
vt 0.166524 0.876108
vt 0.120107 0.900554
vt 0.937206 0.150774
vt 0.820434 0.389579
vt 0.948774 0.389579
vt 0.250692 0.964564
vt 0.883559 0.150774
vt 0.883559 0.235346
vt 0.832430 0.176725
vt 0.811020 0.223693
vt 0.870506 0.241353
vt 0.377546 0.828506
vt 0.464925 0.907649
vt 0.367932 0.935275
vt 0.914864 0.687395
vt 0.890763 0.739474
vt 0.832574 0.683240
vt 0.910462 0.898245
vt 0.822852 0.961071
vt 0.834612 0.845365
vt 0.894724 0.499230
vt 1.000000 0.458230
vt 0.995454 0.508821
vt 0.914864 0.800462
vt 0.786724 0.772459
vt 0.909386 0.839276
vt 0.147506 0.735392
vt 0.230840 0.711999
vt 0.235736 0.779990
vt 0.177301 0.848626
vt 0.235736 0.876108
vt 0.917339 0.580301
vt 1.000000 0.612407
vt 0.568579 0.902858
vt 0.472714 0.918837
vt 0.522169 0.854999
vt 0.120107 0.787194
vt 0.835675 0.839276
vt 0.568579 0.992954
vt 0.468149 1.000000
vt 0.786554 0.918367
vt 0.786554 0.715015
vt 0.464925 0.959660
vt 0.910462 0.970403
vt 0.448558 0.823447
vt 0.933953 0.934725
vt 0.971328 0.892035
vt 0.988998 0.942953
vt 0.689502 0.875591
vt 0.710918 0.907184
vt 0.671033 0.902809
vt 0.197296 0.369461
vt 0.216427 0.344275
vt 0.216427 0.385796
vt 0.929672 0.868896
vt 0.988998 0.839276
vt 0.748172 0.874285
vt 0.748172 0.962761
vt 0.666460 0.939387
vt 0.690263 0.966671
vt 0.231556 0.344275
vt 0.197296 0.344275
vt 0.207202 0.295924
vt 0.457879 0.558709
vt 0.410238 0.522676
vt 0.457879 0.500335
vt 0.415403 0.482247
vt 0.200078 0.253876
vt 0.237314 0.295924
vt 0.197296 0.295924
vt 0.601400 0.854999
vt 0.654945 0.870104
vt 0.570224 0.881100
vt 0.610882 0.929313
vt 0.568579 0.940011
vt 0.695638 0.994823
vt 0.654945 0.965275
vt 0.573147 0.969519
vt 0.612486 0.984209
vt 0.910462 0.905934
vt 0.773494 0.826718
vt 0.718829 0.755218
vt 0.786554 0.765898
vt 0.703259 0.241353
vt 0.742192 0.285587
vt 0.661832 0.338532
vt 0.666460 0.788498
vt 0.702429 0.683240
vt 0.707337 0.403230
vt 0.598211 0.829835
vt 0.513808 0.854999
vt 0.559344 0.791578
vt 0.322136 0.660244
vt 0.406327 0.663359
vt 0.406327 0.746719
vt 0.835581 0.593638
vt 0.799464 0.511787
vt 0.894724 0.482892
vt 0.481506 0.174922
vt 0.478655 0.073876
vt 0.543243 0.169903
vt 0.598211 0.668809
vt 0.581832 0.724927
vt 0.503928 0.712488
vt 0.596332 0.075738
vt 0.645802 0.174922
vt 0.894724 0.602422
vt 0.820241 0.458230
vt 0.527726 0.000000
vt 0.652072 0.060850
vt 0.777358 0.578611
vt 0.468149 0.792739
vt 0.820434 0.326198
vt 0.820434 0.401399
vt 0.792936 0.269426
vt 0.324587 0.823447
vt 0.289469 0.775158
vt 0.785788 0.650899
vt 0.697162 0.871017
vt 0.786554 0.874285
vt 0.786456 0.713125
vt 0.244897 0.785706
vt 0.244604 0.690067
vt 0.410238 0.592470
vt 0.304290 0.551655
vt 0.339556 0.486657
vt 0.291886 0.612739
vt 0.244604 0.586946
vt 0.410238 0.482247
vt 0.141324 0.619866
vt 0.198060 0.553106
vt 0.229010 0.616230
vt 0.773699 0.180171
vt 0.655602 0.180171
vt 0.673469 0.128540
vt 0.166014 0.681759
vt 0.808972 0.113900
vt 0.116767 0.872863
vt 0.029648 0.902486
vt 0.052898 0.827346
vt 0.108532 0.757529
vt 0.120107 0.818709
vt 0.759109 0.041168
vt 0.652072 0.067822
vt 0.703814 0.000000
vt 0.000000 0.793759
vt 0.031456 0.712697
vt 0.141324 0.625581
vt 0.075929 0.508095
vt 0.141324 0.522177
vt 0.060196 0.553173
vt 0.811020 0.050648
vt 0.231075 0.687235
vt 0.120107 0.711999
vt 0.717328 0.605490
vt 0.747372 0.683240
vt 0.671125 0.632717
vt 0.777358 0.599026
vt 0.015949 0.665498
vt 0.000000 0.553010
vt 0.714585 0.535124
vt 0.082864 0.711999
vt 0.249331 0.498105
vt 0.142642 0.523870
vt 0.231075 0.508095
vt 0.726036 0.458230
vt 0.666460 0.513003
vt 0.777358 0.486225
vt 0.391405 0.660244
vt 0.162425 0.000000
vt 0.228177 0.054913
vt 0.082587 0.083885
vt 0.295481 0.176370
vt 0.244604 0.061330
vt 0.326869 0.102383
vt 0.468149 0.423845
vt 0.483164 0.360856
vt 0.540959 0.458230
vt 0.194342 0.108116
vt 0.116375 0.194504
vt 0.162419 0.508095
vt 0.068219 0.485672
vt 0.197296 0.366700
vt 0.573959 0.250243
vt 0.661832 0.241353
vt 0.661832 0.379039
vt 0.000000 0.183489
vt 0.666460 0.668809
vt 0.575827 0.665034
vt 0.666460 0.513314
vt 0.566452 0.458230
vt 0.588887 0.517240
vt 0.468149 0.533447
vt 0.497119 0.639876
vt 0.468148 0.377967
vt 0.426746 0.482247
vt 0.400227 0.334089
vt 0.316169 0.384202
vt 0.326351 0.241353
vt 0.454509 0.249782
vt 0.112275 0.308218
vt 0.040463 0.375033
vt 0.000000 0.310818
vt 0.047005 0.253876
vt 0.312347 0.482247
vt 0.244604 0.363667
vt 0.197296 0.253876
vt 0.006483 0.433388
vt 0.001288 0.086817
vt 0.244604 0.168268
vt 0.199214 0.253876
vt 0.388166 0.241353
vt 0.424774 0.098547
vt 0.478655 0.221875
vt 0.330396 0.000000
vt 0.478655 0.042252
vt 0.468814 0.270760
vn 0.6767 -0.7173 0.1659
vn -0.9892 -0.1465 -0.0021
vn -0.5174 -0.2639 -0.8140
vn -0.9872 -0.1216 -0.1029
vn 0.7624 0.0511 -0.6451
vn 0.4462 0.8664 -0.2241
vn -0.2284 0.8687 -0.4396
vn -0.4550 0.8721 -0.1798
vn -0.5415 0.8302 -0.1325
vn 0.6931 0.1897 -0.6955
vn -0.1364 0.2963 -0.9453
vn 0.9706 -0.1825 0.1569
vn 0.3067 -0.7883 -0.5334
vn 0.0467 -0.8248 -0.5635
vn -0.4172 -0.8662 0.2751
vn -0.3028 -0.8231 0.4804
vn 0.2535 -0.6850 0.6831
vn 0.6330 -0.6895 0.3521
vn -0.3185 -0.9188 0.2333
vn -0.6488 -0.3531 -0.6740
vn 0.6068 -0.3829 -0.6966
vn -0.3081 -0.0080 0.9513
vn -0.2137 -0.0351 -0.9763
vn -0.3997 0.8065 0.4357
vn -0.7690 0.6144 -0.1764
vn -0.0030 0.6912 -0.7227
vn 0.3528 0.7425 -0.5694
vn 0.3062 0.9059 0.2925
vn 0.8035 0.2310 -0.5487
vn -0.8170 0.5452 -0.1877
vn -0.2915 0.0302 0.9561
vn 0.6672 0.3623 0.6508
vn 0.8690 0.1064 0.4833
vn -0.7795 -0.2443 -0.5768
vn -0.8474 -0.2656 0.4598
vn -0.7252 -0.3332 0.6025
vn 0.5617 -0.6076 -0.5615
vn -0.3631 -0.8005 -0.4769
vn 0.3411 -0.7955 0.5008
vn 0.0356 -0.8963 0.4421
vn -0.2628 -0.9253 0.2735
vn -0.2680 -0.9435 -0.1947
vn 0.8761 -0.2641 0.4034
vn 0.0776 -0.2612 0.9622
vn -0.8113 -0.3984 0.4279
vn 0.6340 0.7652 -0.1119
vn 0.1495 0.8683 -0.4730
vn -0.2182 0.9759 0.0000
vn -0.7253 0.5175 0.4541
vn -0.0446 0.7398 0.6714
vn 0.1474 0.6416 0.7527
vn 0.6754 0.6774 0.2914
vn -0.7872 0.4173 0.4541
vn -0.7218 -0.1969 0.6635
vn 0.1901 -0.1500 0.9703
vn 0.9836 -0.0002 0.1805
vn 0.9777 -0.0703 0.1981
vn -0.7100 -0.6489 0.2735
vn 0.5600 -0.8231 0.0947
vn 0.4089 -0.9038 0.1260
vn 0.6817 -0.6814 0.2665
vn -0.1658 -0.9450 -0.2820
vn -0.0830 -0.9555 -0.2832
vn -0.5651 -0.4458 -0.6942
vn 0.4049 -0.3984 -0.8230
vn -0.2744 -0.0768 0.9586
vn 0.1879 0.7464 0.6384
vn 0.2157 0.9216 -0.3226
vn 0.3973 0.8231 -0.4058
vn -0.3867 0.8131 -0.4350
vn -0.6976 0.6633 0.2711
vn -0.0711 0.7098 0.7008
vn 0.3301 0.8369 0.4366
vn 0.4765 0.3761 -0.7947
vn -0.4992 0.4565 -0.7365
vn -0.8617 0.4262 0.2754
vn 0.5212 0.3563 0.7755
vn 0.1868 0.1544 -0.9702
vn 0.2053 -0.2077 -0.9564
vn -0.8090 -0.0090 -0.5878
vn -0.7947 -0.1876 -0.5773
vn -0.9031 -0.4212 -0.0835
vn -0.8532 -0.0517 0.5191
vn -0.5660 -0.2881 0.7724
vn 0.2972 -0.1866 0.9364
vn 0.4482 -0.3772 0.8104
vn 0.4010 -0.7624 -0.5078
vn -0.5161 -0.8351 0.1903
vn -0.4272 -0.6912 0.5829
vn 0.6817 -0.6814 -0.2665
vn 0.3439 -0.7701 0.5373
vn 0.3522 -0.7652 0.5389
vn 0.7666 -0.5801 0.2754
vn 0.0271 -0.9961 -0.0835
vn 0.8617 -0.4262 0.2754
vn -0.4583 -0.3837 -0.8017
vn 0.5287 -0.4264 -0.7339
vn -0.1941 -0.0608 -0.9791
vn 0.8090 0.0090 -0.5878
vn -0.4010 0.7624 0.5078
vn -0.6817 0.6814 -0.2665
vn 0.3356 0.7277 -0.5982
vn -0.3439 0.7701 -0.5373
vn -0.3522 0.7652 -0.5389
vn -0.6817 0.6814 0.2665
vn 0.0830 0.9555 0.2832
vn 0.3679 0.8897 0.2702
vn 0.3527 0.8985 0.2613
vn 0.9031 0.4212 -0.0835
vn 0.7947 0.1876 -0.5773
vn 0.5054 0.4941 -0.7074
vn -0.2014 0.0721 -0.9768
vn -0.4482 0.3772 -0.8104
vn -0.4049 0.3984 0.8230
vn -0.2570 0.2573 0.9315
vn 0.5739 0.2834 0.7684
vn 0.8532 0.0517 0.5191
vn -0.5212 -0.3563 0.7755
vn 0.2820 0.1366 0.9496
vn 0.3933 -0.7398 -0.5459
vn 0.1598 -0.8559 -0.4918
vn -0.3661 -0.6734 -0.6422
vn -0.7081 -0.6814 -0.1851
vn -0.6347 -0.7595 0.1425
vn -0.5514 -0.8075 0.2093
vn -0.2683 -0.6767 0.6857
vn 0.0814 -0.6857 0.7233
vn 0.3353 -0.7862 0.5191
vn -0.3759 -0.9024 -0.2105
vn -0.0764 -0.9594 -0.2714
vn -0.9031 -0.4212 0.0835
vn -0.6155 -0.3926 -0.6835
vn 0.8090 0.0090 0.5878
vn -0.2247 -0.0425 0.9735
vn -0.1818 -0.2080 -0.9611
vn 0.5161 0.8351 -0.1903
vn 0.4272 0.6912 -0.5829
vn -0.3933 0.7398 -0.5459
vn -0.7666 0.5801 0.2754
vn 0.0764 0.9594 0.2714
vn -0.2819 0.7952 0.5369
vn 0.1933 0.9485 0.2510
vn 0.8090 -0.0063 -0.5878
vn 0.5128 0.4974 -0.6998
vn -0.2014 0.0722 -0.9768
vn -0.5162 0.4689 -0.7166
vn -0.0728 0.3742 0.9245
vn 0.6523 0.3641 0.6647
vn 0.7947 0.1876 0.5773
vn 0.9031 0.4212 0.0835
vn 0.0972 -0.3971 -0.9126
vn -0.8712 0.0608 -0.4871
vn -0.8668 -0.0721 -0.4934
vn -0.8019 -0.1959 0.5645
vn -0.5932 -0.3091 0.7433
vn 0.5287 -0.4264 0.7339
vn 0.8614 -0.4264 -0.2760
vn 0.2004 -0.8521 -0.4834
vn -0.4231 -0.8757 -0.2325
vn -0.3356 -0.7277 0.5982
vn 0.7639 -0.5971 -0.2448
vn 0.3933 -0.7398 0.5459
f 6/1/1 2/2/1 1/3/1
f 5/4/2 4/5/2 9/6/2
f 8/7/3 5/4/3 12/8/3
f 5/4/4 9/6/4 12/8/4
f 1/9/5 8/10/5 7/11/5
f 10/12/6 7/11/6 13/13/6
f 13/14/7 12/15/7 10/16/7
f 12/15/8 11/17/8 10/16/8
f 12/15/9 9/18/9 11/17/9
f 8/10/10 13/13/10 7/11/10
f 8/10/11 12/19/11 13/13/11
f 6/1/12 1/3/12 7/20/12
f 2/2/13 8/21/13 1/3/13
f 2/22/14 5/4/14 8/7/14
f 5/23/15 2/24/15 4/25/15
f 2/24/16 3/26/16 4/25/16
f 2/2/17 6/1/17 3/27/17
f 21/28/18 18/29/18 20/30/18
f 18/31/19 14/32/19 19/33/19
f 15/34/20 19/35/20 16/36/20
f 20/37/21 15/38/21 24/39/21
f 14/32/22 21/40/22 22/41/22
f 15/34/23 16/36/23 24/42/23
f 22/43/24 25/44/24 17/45/24
f 16/46/25 22/43/25 17/45/25
f 24/47/26 16/46/26 17/45/26
f 26/48/27 24/39/27 17/49/27
f 25/50/28 26/51/28 17/52/28
f 20/37/29 24/39/29 26/48/29
f 23/53/30 22/43/30 16/46/30
f 22/41/31 21/40/31 25/54/31
f 21/55/32 26/51/32 25/50/32
f 21/55/33 20/56/33 26/51/33
f 16/36/34 19/35/34 23/57/34
f 23/58/35 19/33/35 22/41/35
f 19/33/36 14/32/36 22/41/36
f 18/29/37 15/59/37 20/30/37
f 18/60/38 19/35/38 15/34/38
f 14/61/39 18/29/39 21/28/39
f 27/62/40 31/63/40 28/64/40
f 27/65/41 28/66/41 34/67/41
f 27/68/42 34/69/42 35/70/42
f 31/63/43 32/71/43 37/72/43
f 28/66/44 31/73/44 39/74/44
f 29/75/45 28/66/45 38/76/45
f 30/77/46 44/78/46 41/79/46
f 44/80/47 43/81/47 41/82/47
f 43/81/48 42/83/48 41/82/48
f 40/84/49 39/85/49 42/86/49
f 42/87/50 39/88/50 41/89/50
f 39/88/51 37/90/51 41/89/51
f 37/90/52 30/91/52 41/89/52
f 38/76/53 39/74/53 40/92/53
f 38/76/54 28/66/54 39/74/54
f 39/88/55 31/93/55 37/90/55
f 37/90/56 36/94/56 30/91/56
f 37/90/57 32/95/57 36/94/57
f 34/67/58 28/66/58 29/75/58
f 32/71/59 31/63/59 33/96/59
f 31/63/60 27/62/60 33/96/60
f 45/97/61 53/98/61 52/99/61
f 50/100/62 55/101/62 46/102/62
f 50/103/63 46/104/63 53/98/63
f 46/102/64 55/101/64 60/105/64
f 47/106/65 46/107/65 59/108/65
f 51/109/66 48/110/66 57/111/66
f 48/112/67 61/113/67 49/114/67
f 64/115/68 65/116/68 49/117/68
f 64/118/69 63/119/69 65/120/69
f 65/116/70 62/121/70 49/117/70
f 62/121/71 57/122/71 49/117/71
f 57/123/72 48/112/72 49/114/72
f 49/114/73 61/113/73 64/124/73
f 59/108/74 65/120/74 63/119/74
f 60/125/75 62/121/75 65/116/75
f 58/126/76 57/122/76 62/121/76
f 56/127/77 61/113/77 48/112/77
f 59/108/78 60/128/78 65/120/78
f 59/108/79 46/107/79 60/128/79
f 60/105/80 58/129/80 62/130/80
f 60/105/81 55/101/81 58/129/81
f 55/101/82 54/131/82 58/129/82
f 58/132/83 54/133/83 57/111/83
f 54/133/84 51/109/84 57/111/84
f 48/112/85 51/134/85 56/127/85
f 51/135/86 45/97/86 56/136/86
f 53/98/87 46/104/87 47/137/87
f 55/138/88 50/139/88 54/133/88
f 50/139/89 51/109/89 54/133/89
f 52/99/90 53/98/90 47/137/90
f 50/103/91 53/98/91 51/135/91
f 53/98/92 45/97/92 51/135/92
f 66/140/93 75/141/93 69/142/93
f 74/143/94 77/144/94 75/141/94
f 66/140/95 69/142/95 79/145/95
f 68/146/96 78/147/96 82/148/96
f 69/149/97 68/150/97 83/151/97
f 68/146/98 82/148/98 83/152/98
f 69/149/99 83/151/99 79/153/99
f 70/154/100 86/155/100 88/156/100
f 71/157/101 84/158/101 88/156/101
f 87/159/102 85/160/102 73/161/102
f 73/162/103 85/163/103 88/156/103
f 85/163/104 71/157/104 88/156/104
f 84/158/105 70/154/105 88/156/105
f 88/156/106 86/155/106 73/162/106
f 86/164/107 87/165/107 73/166/107
f 86/164/108 72/167/108 87/165/108
f 79/153/109 87/159/109 72/168/109
f 79/153/110 83/151/110 87/159/110
f 83/151/111 85/160/111 87/159/111
f 83/152/112 82/148/112 85/169/112
f 82/170/113 71/157/113 85/163/113
f 81/171/114 86/172/114 70/173/114
f 81/171/115 80/174/115 86/172/115
f 66/175/116 72/167/116 86/164/116
f 66/175/117 79/176/117 72/167/117
f 76/177/118 80/174/118 81/171/118
f 80/178/119 66/175/119 86/164/119
f 75/141/120 68/179/120 69/142/120
f 75/141/121 77/144/121 68/179/121
f 77/180/122 78/147/122 68/146/122
f 77/180/123 67/181/123 78/147/123
f 77/182/124 76/177/124 67/183/124
f 77/182/125 74/184/125 76/177/125
f 74/184/126 80/174/126 76/177/126
f 74/143/127 66/140/127 80/185/127
f 74/143/128 75/141/128 66/140/128
f 92/186/129 96/187/129 90/188/129
f 92/189/130 90/190/130 95/191/130
f 89/192/131 96/193/131 102/194/131
f 90/188/132 89/195/132 101/196/132
f 94/197/133 98/198/133 99/199/133
f 93/200/134 99/201/134 100/202/134
f 90/188/135 101/196/135 103/203/135
f 97/204/99 103/205/99 98/206/99
f 108/207/136 106/208/136 91/209/136
f 106/208/137 105/210/137 91/209/137
f 91/211/103 105/212/103 109/213/103
f 105/212/138 104/214/138 109/213/138
f 104/214/139 100/215/139 109/213/139
f 109/213/140 107/216/140 91/211/140
f 109/213/141 100/215/141 107/216/141
f 107/217/142 108/218/142 91/219/142
f 98/206/143 103/205/143 106/208/143
f 103/205/144 105/210/144 106/208/144
f 103/203/145 101/196/145 105/220/145
f 101/221/146 104/214/146 105/212/146
f 102/222/76 100/215/76 104/214/76
f 99/199/147 107/217/147 100/223/147
f 99/199/148 108/218/148 107/217/148
f 99/199/149 98/198/149 108/218/149
f 98/198/150 106/224/150 108/218/150
f 97/225/151 90/188/151 103/203/151
f 101/196/152 102/226/152 104/227/152
f 101/196/153 89/195/153 102/226/153
f 102/194/154 96/193/154 100/202/154
f 96/193/155 93/200/155 100/202/155
f 93/228/156 94/229/156 99/230/156
f 94/229/157 97/231/157 98/232/157
f 95/191/158 90/190/158 97/231/158
f 90/188/159 96/187/159 89/195/159
f 92/233/160 93/200/160 96/193/160
f 94/229/161 95/191/161 97/231/161
f 92/189/91 95/191/91 93/228/91
f 95/191/162 94/229/162 93/228/162
