# Blender v2.79 (sub 0) OBJ File: 'lighthouse (1).blend'
# www.blender.org
mtllib testwhite.mtl
o testwhite
v 3.279922 1.775612 -4.217443
v 3.289316 2.187592 -4.198390
v 4.304440 2.187592 -4.264783
v 4.311272 1.775612 -4.284902
v 2.598347 1.775612 -3.440475
v 2.618463 2.187589 -3.433644
v 3.442773 1.775609 -1.727551
v 3.449605 2.187589 -1.747667
v 2.684857 2.187589 -2.418520
v 2.665802 1.775609 -2.409127
v 4.474122 1.775609 -1.795006
v 4.464729 2.187589 -1.814060
v 5.155698 1.775609 -2.571977
v 5.135582 2.187589 -2.578809
v 5.088243 1.775612 -3.603326
v 5.069188 2.187589 -3.593932
v 3.313238 3.236757 -4.149867
v 3.337159 4.285922 -4.101338
v 4.269645 4.285922 -4.162330
v 4.287043 3.236757 -4.213558
v 2.669691 3.236754 -3.416245
v 2.720918 4.285922 -3.398846
v 2.733382 3.236754 -2.442441
v 2.781907 4.285922 -2.466360
v 3.467002 3.236754 -1.798894
v 3.484400 4.285922 -1.850119
v 4.440807 3.236754 -1.862586
v 4.416885 4.285922 -1.911108
v 5.084354 3.236754 -2.596205
v 5.033126 4.285922 -2.613600
v 5.020663 3.236754 -3.570009
v 4.972137 4.285922 -3.546086
v 4.252248 5.335083 -4.111099
v 4.234850 6.384248 -4.059872
v 4.875087 6.384248 -3.498242
v 4.923613 5.335083 -3.522164
v 4.930671 6.384248 -2.648395
v 4.981899 5.335083 -2.630998
v 4.369042 6.384248 -2.008159
v 4.392963 5.335083 -1.959633
v 3.519195 6.384248 -1.952575
v 3.501797 5.335083 -1.901347
v 2.878958 6.384248 -2.514204
v 2.830432 5.335083 -2.490282
v 2.823374 6.384248 -3.364051
v 2.772146 5.335083 -3.381448
v 3.385003 6.384248 -4.004288
v 3.361081 5.335083 -4.052813
v 4.614288 9.058784 -3.510379
v 4.614288 9.273349 -3.510379
v 4.721511 9.273349 -3.416320
v 4.721511 9.058784 -3.416320
v 4.758746 9.058783 -2.847007
v 4.758746 9.273346 -2.847007
v 4.768054 9.273346 -2.704679
v 4.768054 9.058783 -2.704679
v 4.391819 9.058783 -2.275787
v 4.391819 9.273346 -2.275787
v 4.297760 9.273346 -2.168564
v 4.297760 9.058783 -2.168564
v 3.728449 9.058783 -2.131328
v 3.728449 9.273346 -2.131328
v 3.586121 9.273346 -2.122020
v 3.586121 9.058783 -2.122020
v 3.157228 9.058783 -2.498255
v 3.157228 9.273346 -2.498255
v 3.050005 9.273346 -2.592314
v 3.050005 9.058783 -2.592314
v 3.012770 9.058784 -3.161626
v 3.012770 9.273349 -3.161626
v 3.003461 9.273349 -3.303954
v 3.003461 9.058784 -3.303954
v 3.379696 9.058784 -3.732846
v 3.379696 9.273349 -3.732846
v 3.473755 9.273349 -3.840069
v 3.473755 9.058784 -3.840069
v 4.043067 9.058784 -3.877304
v 4.043067 9.273349 -3.877304
v 4.185395 9.273349 -3.886614
v 4.185395 9.058784 -3.886614
v 4.043067 7.815928 -3.877305
v 4.043067 8.133883 -3.877304
v 4.185395 8.133883 -3.886614
v 4.185395 7.815928 -3.886614
v 3.379696 7.815928 -3.732847
v 3.379696 8.133883 -3.732846
v 3.473755 8.133883 -3.840069
v 3.473755 7.815928 -3.840070
v 3.012770 7.815928 -3.161626
v 3.012770 8.133883 -3.161626
v 3.003461 8.133883 -3.303954
v 3.003461 7.815928 -3.303954
v 3.157228 7.815928 -2.498256
v 3.157228 8.133880 -2.498255
v 3.050005 8.133880 -2.592314
v 3.050005 7.815928 -2.592315
v 3.728449 7.815928 -2.131329
v 3.728449 8.133880 -2.131328
v 3.586121 8.133880 -2.122020
v 3.586121 7.815928 -2.122021
v 4.391819 7.815928 -2.275787
v 4.391819 8.133880 -2.275787
v 4.297760 8.133880 -2.168564
v 4.297760 7.815928 -2.168564
v 4.758746 7.815928 -2.847008
v 4.758746 8.133880 -2.847007
v 4.768054 8.133880 -2.704679
v 4.768054 7.815928 -2.704680
v 4.614288 7.815928 -3.510379
v 4.614288 8.133883 -3.510379
v 4.721511 8.133883 -3.416320
v 4.721511 7.815928 -3.416320
v 4.673995 9.058783 -2.597456
v 4.673995 8.133880 -2.597456
v 4.673995 7.815928 -2.597457
v 4.579937 8.133880 -2.490234
v 4.579937 7.815928 -2.490234
v 4.485878 8.133880 -2.383011
v 4.485878 7.815928 -2.383011
v 4.673996 9.273346 -2.597456
v 4.579937 9.273346 -2.490234
v 4.579937 9.058783 -2.490234
v 4.485878 9.273346 -2.383011
v 4.485878 9.058783 -2.383011
v 4.730820 9.058784 -3.273991
v 4.730820 8.133883 -3.273991
v 4.730820 7.815928 -3.273992
v 4.740129 8.133883 -3.131663
v 4.740129 7.815928 -3.131664
v 4.749437 8.133883 -2.989335
v 4.749437 7.815928 -2.989336
v 4.730820 9.273349 -3.273991
v 4.740129 9.273349 -3.131663
v 4.740129 9.058784 -3.131663
v 4.749437 9.273349 -2.989335
v 4.749437 9.058784 -2.989335
v 4.292618 9.058784 -3.792555
v 4.292618 8.133883 -3.792555
v 4.292618 7.815928 -3.792555
v 4.399841 8.133883 -3.698496
v 4.399841 7.815928 -3.698496
v 4.507064 8.133883 -3.604437
v 4.507064 7.815928 -3.604437
v 4.292618 9.273349 -3.792555
v 4.399841 9.273349 -3.698496
v 4.399841 9.058784 -3.698496
v 4.507064 9.273349 -3.604437
v 4.507064 9.058784 -3.604437
v 3.616083 9.058784 -3.849378
v 3.616083 8.133883 -3.849378
v 3.616083 7.815928 -3.849379
v 3.758411 8.133883 -3.858688
v 3.758411 7.815928 -3.858688
v 3.900739 8.133883 -3.867995
v 3.900739 7.815928 -3.867996
v 3.616083 9.273349 -3.849378
v 3.758411 9.273349 -3.858688
v 3.758411 9.058784 -3.858688
v 3.900739 9.273349 -3.867995
v 3.900739 9.058784 -3.867995
v 3.097520 9.058784 -3.411177
v 3.097520 8.133883 -3.411177
v 3.097520 7.815928 -3.411177
v 3.191579 8.133883 -3.518401
v 3.191579 7.815928 -3.518401
v 3.285638 8.133883 -3.625623
v 3.285638 7.815928 -3.625624
v 3.097520 9.273349 -3.411177
v 3.191579 9.273349 -3.518399
v 3.191579 9.058784 -3.518401
v 3.285638 9.273349 -3.625623
v 3.285638 9.058784 -3.625623
v 3.040696 9.058783 -2.734641
v 3.040696 8.133880 -2.734641
v 3.040696 7.815928 -2.734642
v 3.031387 8.133880 -2.876969
v 3.031387 7.815928 -2.876970
v 3.022079 8.133883 -3.019298
v 3.022079 7.815928 -3.019298
v 3.040696 9.273346 -2.734641
v 3.031387 9.273346 -2.876969
v 3.031387 9.058783 -2.876969
v 3.022079 9.273349 -3.019298
v 3.022079 9.058784 -3.019298
v 3.478898 9.058783 -2.216079
v 3.478898 8.133880 -2.216079
v 3.478898 7.815928 -2.216080
v 3.371675 8.133880 -2.310137
v 3.371675 7.815928 -2.310138
v 3.264451 8.133880 -2.404196
v 3.264451 7.815928 -2.404197
v 3.478898 9.273346 -2.216078
v 3.371675 9.273346 -2.310137
v 3.371675 9.058783 -2.310137
v 3.264452 9.273346 -2.404196
v 3.264451 9.058783 -2.404196
v 4.155433 9.058783 -2.159254
v 4.155433 8.133880 -2.159254
v 4.155433 7.815928 -2.159255
v 4.013105 8.133880 -2.149946
v 4.013105 7.815928 -2.149947
v 3.870777 8.133880 -2.140638
v 3.870777 7.815928 -2.140638
v 4.155433 9.273346 -2.159254
v 4.013105 9.273346 -2.149946
v 4.013105 9.058783 -2.149946
v 3.870777 9.273346 -2.140638
v 3.870777 9.058783 -2.140638
vt 0.727990 0.410034
vt 0.792858 0.581471
vt 0.727990 0.582831
vt 0.793935 0.291130
vt 0.729085 0.287849
vt 0.934496 0.460644
vt 1.000000 0.579823
vt 0.935137 0.582833
vt 0.935137 0.287849
vt 0.999369 0.459556
vt 0.946457 0.876723
vt 0.882226 1.000000
vt 0.881585 0.877811
vt 0.882226 0.705016
vt 0.729085 0.705016
vt 0.562202 0.403220
vt 0.727990 0.562221
vt 0.562808 0.566374
vt 0.562808 0.287849
vt 0.727410 0.405990
vt 0.727990 0.880475
vt 0.878326 0.705016
vt 0.881584 0.880475
vt 0.541964 0.163154
vt 0.707752 0.270861
vt 0.542570 0.278525
vt 0.707752 0.004153
vt 0.542570 0.000000
vt 0.395114 0.562911
vt 0.230952 0.681740
vt 0.229918 0.566372
vt 0.395114 0.406679
vt 0.229918 0.403217
vt 0.230952 0.287849
vt 0.396104 0.542736
vt 0.562202 0.639957
vt 0.397050 0.648314
vt 0.727938 0.570527
vt 0.562202 0.715682
vt 0.562757 0.566374
vt 0.727410 0.712913
vt 0.562757 0.821264
vt 0.000554 0.575698
vt 0.165207 0.722237
vt 0.000000 0.725006
vt 0.165736 0.822922
vt 0.000554 0.830587
vt 0.797194 0.287849
vt 0.934496 0.463308
vt 0.793935 0.463308
vt 0.562202 0.296206
vt 0.396104 0.393427
vt 0.397051 0.287849
vt 0.561300 0.396888
vt 0.555970 0.892125
vt 0.540096 0.856094
vt 0.555970 0.856254
vt 0.450301 0.891964
vt 0.427852 0.856094
vt 0.450301 0.856094
vt 0.707752 0.000000
vt 0.723626 0.036031
vt 0.707752 0.035871
vt 0.813421 0.000160
vt 0.835870 0.036031
vt 0.813421 0.036031
vt 0.229487 0.355296
vt 0.195609 0.372158
vt 0.195717 0.355296
vt 0.229379 0.467543
vt 0.195609 0.491389
vt 0.195610 0.467543
vt 0.229810 0.558836
vt 0.196149 0.575698
vt 0.196041 0.558836
vt 0.252367 0.925391
vt 0.229918 0.889520
vt 0.252367 0.889520
vt 0.252367 0.734895
vt 0.229918 0.681740
vt 0.252367 0.681740
vt 0.050474 0.558836
vt 0.000540 0.575698
vt 0.000432 0.558836
vt 0.050042 0.467543
vt 0.000000 0.491389
vt 0.000000 0.467543
vt 0.050150 0.355296
vt 0.000000 0.372158
vt 0.000108 0.355296
vt 0.813421 0.243811
vt 0.835870 0.190655
vt 0.835870 0.243811
vt 0.707752 0.190495
vt 0.723626 0.243811
vt 0.707752 0.243650
vt 0.450301 0.701469
vt 0.427852 0.648314
vt 0.450301 0.648314
vt 0.555970 0.701630
vt 0.540096 0.648314
vt 0.555970 0.648474
vt 0.229918 0.734896
vt 0.050582 0.575698
vt 0.050042 0.491389
vt 0.050042 0.372158
vt 0.813421 0.190655
vt 0.723626 0.190655
vt 0.427852 0.701469
vt 0.540097 0.701469
vt 0.229231 0.783638
vt 0.213357 0.628853
vt 0.229231 0.629013
vt 0.213357 0.575698
vt 0.229231 0.575858
vt 0.373911 0.735216
vt 0.389785 0.788211
vt 0.373911 0.788372
vt 0.373911 0.681740
vt 0.389785 0.735056
vt 0.373911 0.734895
vt 0.358037 0.681901
vt 0.373911 0.734895
vt 0.358037 0.735056
vt 0.427852 0.891964
vt 0.411978 0.856254
vt 0.396104 0.892285
vt 0.396104 0.856415
vt 0.358037 0.771087
vt 0.342163 0.735056
vt 0.358037 0.735216
vt 0.707752 0.243971
vt 0.723626 0.279681
vt 0.707752 0.279842
vt 0.517647 0.701469
vt 0.517648 0.648314
vt 0.495199 0.648314
vt 0.495198 0.701469
vt 0.472750 0.648314
vt 0.540096 0.891964
vt 0.517647 0.856094
vt 0.517647 0.891964
vt 0.495198 0.856094
vt 0.495198 0.891964
vt 0.472750 0.856094
vt 0.165736 0.611568
vt 0.181610 0.766353
vt 0.165736 0.766193
vt 0.181610 0.819508
vt 0.165736 0.819348
vt 0.197483 0.819669
vt 0.197483 0.766513
vt 0.213357 0.819829
vt 0.342163 0.681901
vt 0.358037 0.734896
vt 0.342163 0.735056
vt 0.165736 0.575698
vt 0.181610 0.611728
vt 0.181610 0.575858
vt 0.197483 0.611889
vt 0.197483 0.576018
vt 0.213357 0.612049
vt 0.358037 0.735217
vt 0.373911 0.770927
vt 0.358037 0.771087
vt 0.342163 0.889520
vt 0.319714 0.734896
vt 0.342163 0.734896
vt 0.319714 0.681740
vt 0.342163 0.681740
vt 0.297265 0.734896
vt 0.297265 0.681740
vt 0.274816 0.681740
vt 0.342163 0.925391
vt 0.319714 0.889520
vt 0.319714 0.925390
vt 0.297265 0.889520
vt 0.297265 0.925390
vt 0.274816 0.889520
vt 0.274816 0.925391
vt 0.050150 0.508251
vt 0.000108 0.508251
vt 0.000216 0.525113
vt 0.050258 0.525112
vt 0.000324 0.541974
vt 0.229379 0.491389
vt 0.195717 0.508251
vt 0.229595 0.525112
vt 0.195825 0.525112
vt 0.229703 0.541974
vt 0.195933 0.541974
vt 0.050042 0.396004
vt 0.000000 0.396004
vt 0.050042 0.419850
vt 0.000000 0.419850
vt 0.000000 0.443697
vt 0.050042 0.443696
vt 0.229379 0.372158
vt 0.195609 0.396004
vt 0.229379 0.396004
vt 0.195609 0.419850
vt 0.229379 0.419850
vt 0.195609 0.443696
vt 0.229379 0.443696
vt 0.196149 0.287849
vt 0.050473 0.304711
vt 0.050581 0.287849
vt 0.000432 0.304711
vt 0.000540 0.287849
vt 0.050365 0.321572
vt 0.000324 0.321572
vt 0.050257 0.338434
vt 0.000216 0.338434
vt 0.229918 0.287849
vt 0.196041 0.304711
vt 0.229702 0.321572
vt 0.195933 0.321572
vt 0.195825 0.338434
vt 0.746074 0.190655
vt 0.746074 0.243811
vt 0.768523 0.190655
vt 0.768523 0.243811
vt 0.790972 0.243811
vt 0.790972 0.190655
vt 0.723626 0.000160
vt 0.746074 0.036031
vt 0.746074 0.000161
vt 0.768523 0.036031
vt 0.768523 0.000160
vt 0.790972 0.036031
vt 0.790972 0.000160
vt 0.792858 0.411393
vt 1.000000 0.289480
vt 0.947089 0.996990
vt 0.947089 0.706647
vt 0.793935 0.701734
vt 0.727990 0.295514
vt 0.731248 0.705016
vt 0.707172 0.160384
vt 0.396104 0.673384
vt 0.396104 0.296206
vt 0.561300 0.539275
vt 0.727938 0.813599
vt 0.165736 0.579851
vt 0.931238 0.287849
vt 0.835870 0.000161
vt 0.229918 0.575698
vt 0.229918 0.925391
vt 0.213357 0.783477
vt 0.389785 0.735056
vt 0.389785 0.681901
vt 0.373911 0.681740
vt 0.411978 0.892125
vt 0.342163 0.770927
vt 0.723626 0.243811
vt 0.472750 0.701469
vt 0.472750 0.891965
vt 0.213357 0.766674
vt 0.358037 0.681740
vt 0.213357 0.576179
vt 0.373911 0.735056
vt 0.274816 0.734896
vt 0.050366 0.541974
vt 0.229487 0.508251
vt 0.229810 0.304711
vt 0.229595 0.338434
vn -0.0652 0.0476 -0.9967
vn -0.7509 0.0476 -0.6587
vn -0.6587 0.0476 0.7509
vn 0.0652 0.0476 0.9967
vn 0.7509 0.0476 0.6587
vn 0.9967 0.0476 -0.0652
vn 0.6587 0.0476 -0.7509
vn -0.9967 0.0476 0.0652
vn 0.6594 0.0000 -0.7517
vn 0.6595 0.0000 -0.7517
vn 0.9979 0.0000 -0.0653
vn 0.7517 0.0000 0.6595
vn 0.0653 0.0000 0.9979
vn -0.6595 0.0000 0.7517
vn -0.9979 0.0000 0.0653
vn -0.7517 0.0000 -0.6595
vn -0.0653 0.0000 -0.9979
vn -0.7517 0.0000 -0.6594
vn 0.7517 -0.0000 0.6594
vn -0.6594 -0.0000 0.7517
vn -0.6594 -0.0000 0.7518
f 1/1/1 3/2/1 4/3/1
f 6/4/2 1/1/2 5/5/2
f 7/6/3 9/7/3 10/8/3
f 11/9/4 8/10/4 7/6/4
f 14/11/5 11/12/5 13/13/5
f 15/14/6 14/11/6 13/13/6
f 3/2/7 15/15/7 4/3/7
f 17/16/1 19/17/1 20/18/1
f 21/19/2 18/20/2 17/16/2
f 23/21/8 22/22/8 21/23/8
f 25/24/3 24/25/3 23/26/3
f 28/27/4 25/24/4 27/28/4
f 30/29/5 27/30/5 29/31/5
f 32/32/6 29/31/6 31/33/6
f 20/34/7 32/32/7 31/33/7
f 33/35/7 35/36/7 36/37/7
f 35/38/6 38/39/6 36/40/6
f 37/41/5 40/42/5 38/39/5
f 40/43/4 41/44/4 42/45/4
f 42/45/3 43/46/3 44/47/3
f 43/48/8 46/49/8 44/50/8
f 45/51/2 48/52/2 46/53/2
f 47/54/1 33/35/1 48/52/1
f 50/55/9 52/56/10 49/57/9
f 54/58/11 56/59/11 53/60/11
f 58/61/12 60/62/12 57/63/12
f 62/64/13 64/65/13 61/66/13
f 66/67/14 68/68/14 65/69/14
f 70/70/15 72/71/15 69/72/15
f 74/73/16 76/74/16 73/75/16
f 78/76/17 80/77/17 77/78/17
f 82/79/17 84/80/17 81/81/17
f 86/82/16 88/83/16 85/84/18
f 90/85/15 92/86/15 89/87/15
f 94/88/14 96/89/14 93/90/14
f 97/91/13 99/92/13 100/93/13
f 102/94/12 104/95/12 101/96/19
f 106/97/11 108/98/11 105/99/11
f 110/100/10 112/101/10 109/102/9
f 77/78/17 83/103/17 82/79/17
f 73/75/16 87/104/16 86/82/16
f 69/72/15 91/105/15 90/85/15
f 65/69/14 95/106/14 94/88/14
f 61/66/13 99/92/13 98/107/13
f 57/63/12 103/108/12 102/94/12
f 53/60/11 107/109/11 106/97/11
f 49/57/9 111/110/10 110/100/10
f 56/111/12 114/112/12 107/113/12
f 107/113/12 115/114/12 108/115/12
f 114/116/12 117/117/12 115/118/12
f 116/119/12 119/120/19 117/121/12
f 118/122/12 101/123/19 119/124/19
f 55/125/12 113/126/12 56/59/12
f 113/126/12 121/127/12 122/128/19
f 121/129/12 124/130/12 122/131/19
f 123/132/12 57/133/12 124/134/12
f 52/56/11 126/135/11 111/110/11
f 111/110/11 127/136/11 112/101/11
f 126/135/11 129/137/11 127/136/11
f 128/138/11 131/139/11 129/137/11
f 131/139/11 106/97/11 105/99/11
f 51/140/11 125/141/11 52/56/11
f 132/142/11 134/143/11 125/141/11
f 133/144/11 136/145/11 134/143/11
f 136/145/11 54/58/11 53/60/11
f 80/146/10 138/147/10 83/148/10
f 83/148/10 139/149/10 84/150/10
f 138/147/10 141/151/10 139/149/10
f 140/152/10 143/153/9 141/151/10
f 142/154/9 109/155/9 143/156/9
f 79/157/10 137/158/10 80/146/10
f 144/159/10 146/160/10 137/158/10
f 145/161/10 148/162/9 146/160/10
f 147/163/10 49/164/9 148/165/9
f 76/166/17 150/167/17 87/168/17
f 87/168/17 151/169/17 88/170/17
f 151/169/17 152/171/17 153/172/17
f 152/171/17 155/173/17 153/172/17
f 155/173/17 82/79/17 81/81/17
f 75/174/17 149/175/17 76/166/17
f 156/176/17 158/177/17 149/175/17
f 157/178/17 160/179/17 158/177/17
f 159/180/17 77/78/17 160/179/17
f 72/71/16 162/181/16 91/105/16
f 91/105/16 163/182/18 92/86/16
f 162/181/16 165/183/18 163/182/18
f 164/184/16 167/185/18 165/183/18
f 167/185/18 86/82/16 85/84/18
f 71/186/16 161/187/16 72/71/16
f 161/187/16 169/188/16 170/189/16
f 170/189/16 171/190/16 172/191/16
f 171/190/16 73/75/16 172/191/16
f 68/68/15 174/192/15 95/106/15
f 96/89/15 174/192/15 175/193/15
f 175/193/15 176/194/15 177/195/15
f 176/194/15 179/196/15 177/195/15
f 178/197/15 89/87/15 179/196/15
f 67/198/15 173/199/15 68/68/15
f 180/200/15 182/201/15 173/199/15
f 181/202/15 184/203/15 182/201/15
f 183/204/15 69/72/15 184/203/15
f 64/205/14 186/206/14 99/207/14
f 99/207/14 187/208/20 100/209/14
f 187/208/20 188/210/21 189/211/20
f 189/211/20 190/212/14 191/213/14
f 191/213/14 94/88/14 93/90/14
f 63/214/21 185/215/20 64/205/14
f 185/215/20 193/216/20 194/217/21
f 193/216/20 196/218/14 194/217/21
f 196/218/14 66/67/14 65/69/14
f 60/62/13 198/219/13 103/108/13
f 103/108/13 199/220/13 104/95/13
f 199/220/13 200/221/13 201/222/13
f 200/221/13 203/223/13 201/222/13
f 202/224/13 97/91/13 203/223/13
f 59/225/13 197/226/13 60/62/13
f 204/227/13 206/228/13 197/226/13
f 205/229/13 208/230/13 206/228/13
f 207/231/13 61/66/13 208/230/13
f 1/1/1 2/232/1 3/2/1
f 6/4/2 2/232/2 1/1/2
f 7/6/3 8/10/3 9/7/3
f 11/9/4 12/233/4 8/10/4
f 14/11/5 12/234/5 11/12/5
f 15/14/6 16/235/6 14/11/6
f 3/2/7 16/236/7 15/15/7
f 17/16/1 18/20/1 19/17/1
f 21/19/2 22/237/2 18/20/2
f 23/21/8 24/238/8 22/22/8
f 25/24/3 26/239/3 24/25/3
f 28/27/4 26/239/4 25/24/4
f 30/29/5 28/240/5 27/30/5
f 32/32/6 30/29/6 29/31/6
f 20/34/7 19/241/7 32/32/7
f 33/35/7 34/242/7 35/36/7
f 35/38/6 37/41/6 38/39/6
f 37/41/5 39/243/5 40/42/5
f 40/43/4 39/244/4 41/44/4
f 42/45/3 41/44/3 43/46/3
f 43/48/8 45/245/8 46/49/8
f 45/51/2 47/54/2 48/52/2
f 47/54/1 34/242/1 33/35/1
f 50/55/9 51/140/10 52/56/10
f 54/58/11 55/125/11 56/59/11
f 58/61/12 59/225/12 60/62/12
f 62/64/13 63/246/13 64/65/13
f 66/67/14 67/198/14 68/68/14
f 70/70/15 71/186/15 72/71/15
f 74/73/16 75/247/16 76/74/16
f 78/76/17 79/248/17 80/77/17
f 82/79/17 83/103/17 84/80/17
f 86/82/16 87/104/16 88/83/16
f 90/85/15 91/105/15 92/86/15
f 94/88/14 95/106/14 96/89/14
f 97/91/13 98/107/13 99/92/13
f 102/94/12 103/108/12 104/95/12
f 106/97/11 107/109/11 108/98/11
f 110/100/10 111/110/10 112/101/10
f 77/78/17 80/77/17 83/103/17
f 73/75/16 76/74/16 87/104/16
f 69/72/15 72/71/15 91/105/15
f 65/69/14 68/68/14 95/106/14
f 61/66/13 64/65/13 99/92/13
f 57/63/12 60/62/12 103/108/12
f 53/60/11 56/59/11 107/109/11
f 49/57/9 52/56/10 111/110/10
f 56/111/12 113/249/12 114/112/12
f 107/113/12 114/112/12 115/114/12
f 114/116/12 116/250/12 117/117/12
f 116/119/12 118/251/12 119/120/19
f 118/122/12 102/252/12 101/123/19
f 55/125/12 120/253/12 113/126/12
f 113/126/12 120/253/12 121/127/12
f 121/129/12 123/254/12 124/130/12
f 123/132/12 58/255/12 57/133/12
f 52/56/11 125/141/11 126/135/11
f 111/110/11 126/135/11 127/136/11
f 126/135/11 128/138/11 129/137/11
f 128/138/11 130/256/11 131/139/11
f 131/139/11 130/256/11 106/97/11
f 51/140/11 132/142/11 125/141/11
f 132/142/11 133/144/11 134/143/11
f 133/144/11 135/257/11 136/145/11
f 136/145/11 135/257/11 54/58/11
f 80/146/10 137/158/10 138/147/10
f 83/148/10 138/147/10 139/149/10
f 138/147/10 140/152/10 141/151/10
f 140/152/10 142/258/9 143/153/9
f 142/154/9 110/259/10 109/155/9
f 79/157/10 144/159/10 137/158/10
f 144/159/10 145/161/10 146/160/10
f 145/161/10 147/260/10 148/162/9
f 147/163/10 50/261/9 49/164/9
f 76/166/17 149/175/17 150/167/17
f 87/168/17 150/167/17 151/169/17
f 151/169/17 150/167/17 152/171/17
f 152/171/17 154/262/17 155/173/17
f 155/173/17 154/262/17 82/79/17
f 75/174/17 156/176/17 149/175/17
f 156/176/17 157/178/17 158/177/17
f 157/178/17 159/180/17 160/179/17
f 159/180/17 78/76/17 77/78/17
f 72/71/16 161/187/16 162/181/16
f 91/105/16 162/181/16 163/182/18
f 162/181/16 164/184/16 165/183/18
f 164/184/16 166/263/16 167/185/18
f 167/185/18 166/263/16 86/82/16
f 71/186/16 168/264/16 161/187/16
f 161/187/16 168/264/16 169/188/16
f 170/189/16 169/188/16 171/190/16
f 171/190/16 74/73/16 73/75/16
f 68/68/15 173/199/15 174/192/15
f 96/89/15 95/106/15 174/192/15
f 175/193/15 174/192/15 176/194/15
f 176/194/15 178/197/15 179/196/15
f 178/197/15 90/85/15 89/87/15
f 67/198/15 180/200/15 173/199/15
f 180/200/15 181/202/15 182/201/15
f 181/202/15 183/204/15 184/203/15
f 183/204/15 70/70/15 69/72/15
f 64/205/14 185/215/20 186/206/14
f 99/207/14 186/206/14 187/208/20
f 187/208/20 186/206/14 188/210/21
f 189/211/20 188/210/21 190/212/14
f 191/213/14 190/212/14 94/88/14
f 63/214/21 192/265/20 185/215/20
f 185/215/20 192/265/20 193/216/20
f 193/216/20 195/266/14 196/218/14
f 196/218/14 195/266/14 66/67/14
f 60/62/13 197/226/13 198/219/13
f 103/108/13 198/219/13 199/220/13
f 199/220/13 198/219/13 200/221/13
f 200/221/13 202/224/13 203/223/13
f 202/224/13 98/107/13 97/91/13
f 59/225/13 204/227/13 197/226/13
f 204/227/13 205/229/13 206/228/13
f 205/229/13 207/231/13 208/230/13
f 207/231/13 62/64/13 61/66/13
