# Blender v2.79 (sub 0) OBJ File: 'lighthouse (1).blend'
# www.blender.org
mtllib testplant.mtl
o testplant
v 0.366633 0.126412 -4.400341
v 0.394368 0.276765 -4.395631
v 0.593738 0.239008 -4.409627
v 0.553635 0.157227 -4.271772
v 0.430545 0.424652 -4.382968
v 0.352230 0.524959 -4.200861
v 0.562644 0.497341 -4.090758
v 0.559911 0.399983 -4.377340
v 0.337261 0.060126 -4.224877
v 0.456811 -0.024513 -4.163545
v 0.375382 0.557137 -3.835354
v 0.396049 -0.065893 -3.955403
v 0.807437 0.112476 -3.968147
v 0.606669 0.009000 -4.016980
v 0.798329 0.441177 -4.058177
v 0.844410 0.258018 -4.118585
v 0.587971 0.510444 -4.028823
v 0.787231 0.079227 -3.741904
v 0.603910 -0.010843 -3.787122
v 0.793169 0.406102 -3.787386
v 0.827180 0.249124 -3.822940
v 0.596828 0.508555 -3.861166
v 0.651919 0.128955 -3.618428
v 0.424627 -0.030434 -3.757410
v 0.562478 0.418360 -3.598572
v 0.606448 0.269396 -3.464079
v 0.548499 0.518144 -3.708843
v 0.380240 0.383768 -3.481595
v 0.432236 0.273257 -3.329767
v 0.340650 0.529854 -3.693490
v 0.354692 0.020265 -3.679415
v 0.345218 0.128960 -3.481199
v 0.128824 0.542547 -3.696134
v 0.153077 0.010302 -3.672951
v 0.092839 0.255586 -3.495138
v 0.086482 0.121629 -3.572897
v 0.075244 0.423356 -3.569464
v 0.041428 0.002514 -3.848526
v -0.128870 0.274479 -3.817344
v -0.069451 0.113424 -3.788502
v 0.168207 0.531313 -3.920495
v -0.084027 0.387824 -3.782471
v 0.142692 -0.031371 -3.972523
v -0.073323 0.296723 -4.172208
v -0.075431 0.120574 -4.077406
v 0.098740 0.492801 -3.976242
v -0.076631 0.405497 -4.078955
v 0.153595 0.050106 -4.122980
v 0.085727 0.289962 -4.350555
v 0.025700 0.118551 -4.338836
v 0.277553 0.518231 -4.206909
v 0.162284 0.433478 -4.255035
v 2.344834 0.137664 -0.938765
v 2.360076 0.182433 -1.031240
v 2.469595 0.200641 -0.965810
v 2.414076 0.087652 -0.907177
v 2.374469 0.278926 -1.032016
v 2.393242 0.373962 -1.022905
v 2.472852 0.359385 -1.016457
v 2.492336 0.256616 -1.034403
v 2.352601 0.438833 -0.927244
v 2.364616 0.459897 -0.740558
v 2.468997 0.422514 -0.872257
v 2.375341 0.061151 -0.798153
v 2.496295 0.107454 -0.831196
v 2.631323 0.267848 -0.883443
v 2.609013 0.174199 -0.810331
v 2.486592 0.430256 -0.836878
v 2.604287 0.383726 -0.853524
v 2.494863 0.095730 -0.713918
v 2.622381 0.262594 -0.727600
v 2.598528 0.154552 -0.689661
v 2.491188 0.429140 -0.749441
v 2.601609 0.363001 -0.711481
v 2.397374 0.084154 -0.693998
v 2.498932 0.274572 -0.544103
v 2.520598 0.183936 -0.620610
v 2.461657 0.434806 -0.670697
v 2.474184 0.370244 -0.611084
v 2.394120 0.276853 -0.475338
v 2.348963 0.183939 -0.551025
v 2.346592 0.441725 -0.661168
v 2.367137 0.349804 -0.551215
v 2.353879 0.114111 -0.654415
v 2.229465 0.449226 -0.664600
v 2.196386 0.373196 -0.597119
v 2.202218 0.179607 -0.598766
v 2.242050 0.108224 -0.653478
v 2.203587 0.266411 -0.559004
v 2.113588 0.174759 -0.712017
v 2.179660 0.103622 -0.743377
v 2.106024 0.352201 -0.709123
v 2.079630 0.277575 -0.724915
v 2.245450 0.442588 -0.777904
v 2.110485 0.178983 -0.862749
v 2.232209 0.083600 -0.809867
v 2.109862 0.362644 -0.863492
v 2.108455 0.290719 -0.909169
v 2.209400 0.419831 -0.811652
v 2.170676 0.177788 -0.997985
v 2.242319 0.131743 -0.887715
v 2.241555 0.379177 -0.957781
v 2.199897 0.286724 -1.006063
v 2.306646 0.434857 -0.927981
vt 0.000000 0.195485
vt 0.085949 0.127131
vt 0.024475 0.206842
vt 0.573314 0.288153
vt 0.514610 0.419721
vt 0.501003 0.366279
vt 0.109774 0.234479
vt 0.159848 0.180672
vt 0.440328 0.354064
vt 0.455173 0.442018
vt 0.204643 0.804829
vt 0.204643 0.936375
vt 0.110725 0.829874
vt 0.252281 0.226406
vt 0.226000 0.120407
vt 0.929952 0.452561
vt 0.839605 0.630205
vt 0.851746 0.442018
vt 0.627469 0.350166
vt 0.688401 0.207775
vt 0.653046 0.345619
vt 0.151660 0.000000
vt 0.240723 0.028409
vt 0.654476 0.442018
vt 0.327504 0.140084
vt 0.930991 0.648809
vt 0.854355 0.736147
vt 0.589591 0.536709
vt 0.588911 0.674798
vt 0.539915 0.576196
vt 0.788577 0.667763
vt 0.789141 0.745236
vt 0.536807 0.442018
vt 0.449574 0.514220
vt 0.132181 0.499868
vt 0.216007 0.566732
vt 0.069981 0.561770
vt 0.347073 0.676673
vt 0.401770 0.492355
vt 0.508765 0.635491
vt 0.010886 0.498597
vt 0.263735 0.467009
vt 0.227375 0.474599
vt 0.442170 0.658990
vt 0.430853 0.765486
vt 0.342047 0.783919
vt 0.546108 0.726074
vt 0.072743 0.618727
vt 0.263735 0.658028
vt 0.135075 0.707429
vt 0.589591 0.813674
vt 0.000000 0.681675
vt 0.071272 0.804829
vt 0.022357 0.756169
vt 0.524265 0.869772
vt 0.444804 0.883149
vt 0.342047 0.367572
vt 0.261238 0.407302
vt 0.648350 0.481078
vt 0.736143 0.632009
vt 0.656645 0.611351
vt 0.682150 0.068918
vt 0.570708 0.000000
vt 0.666874 0.014946
vt 0.589591 0.507225
vt 0.594399 0.609015
vt 0.710441 0.442018
vt 0.784615 0.600049
vt 0.623020 0.140973
vt 0.221552 0.347937
vt 0.657098 0.727477
vt 0.583259 0.125285
vt 0.496756 0.076296
vt 0.133649 0.446649
vt 0.788577 0.714892
vt 0.737010 0.756168
vt 0.142812 0.331421
vt 0.433890 0.100704
vt 0.342047 0.183784
vt 0.398283 0.076410
vt 0.496339 0.221010
vt 0.408026 0.212125
vt 0.557400 0.257994
vt 0.382322 0.343464
vt 0.029385 0.376604
vt 0.752740 0.132596
vt 0.737800 0.070746
vt 0.780312 0.101160
vt 0.640472 0.788717
vt 0.589591 0.822165
vt 0.591405 0.781078
vt 0.263735 0.531614
vt 0.276322 0.467009
vt 0.317171 0.531614
vt 0.829124 0.128503
vt 0.688401 0.112175
vt 0.705943 0.118159
vt 0.621783 0.824303
vt 0.601616 0.894625
vt 0.814514 0.067824
vt 0.771174 0.000000
vt 0.818457 0.015748
vt 0.009049 0.939602
vt 0.027163 0.882880
vt 0.062213 0.979573
vt 0.083754 0.870911
vt 0.110725 0.967619
vt 0.330587 0.467009
vt 0.330587 0.550864
vt 0.317171 0.474558
vt 0.866584 0.077964
vt 0.110725 0.843772
vt 0.058074 0.821260
vt 0.097491 0.804829
vt 0.825204 1.000000
vt 0.819565 0.926394
vt 0.871961 0.962422
vt 0.793495 0.946828
vt 0.789246 0.871376
vt 0.703114 0.418201
vt 0.700781 0.347509
vt 0.733911 0.382374
vt 0.688700 0.263309
vt 0.738762 0.297154
vt 0.688401 0.289744
vt 0.834803 0.893949
vt 0.875268 0.883484
vt 0.930265 0.876023
vt 0.904160 0.974503
vt 0.785865 0.267475
vt 0.811753 0.346362
vt 0.814581 0.843408
vt 0.879816 0.823232
vt 0.764792 0.383075
vt 0.930265 0.814599
vt 0.828404 0.763675
vt 0.797144 0.425978
vt 0.875697 0.756168
vt 0.790111 0.795322
vt 0.899010 0.047257
vt 0.950543 0.087790
vt 0.910159 0.108064
vt 0.872852 0.121859
vt 0.914841 0.178429
vt 0.875476 0.175491
vt 0.997413 0.171066
vt 0.965275 0.188344
vt 0.729018 0.975661
vt 0.659147 0.953264
vt 0.708652 0.933384
vt 0.872852 0.205263
vt 0.831199 0.228039
vt 0.789246 0.926172
vt 0.761227 0.973555
vt 0.761461 0.252550
vt 0.810209 0.196990
vt 1.000000 0.230808
vt 0.966409 0.252741
vt 0.722959 0.913476
vt 0.915253 0.238988
vt 0.766953 0.875065
vt 0.768659 0.186264
vt 0.770646 0.834482
vt 0.695578 0.848142
vt 0.719043 0.799409
vt 0.664059 0.878010
vt 0.746152 0.765128
vt 0.789246 0.813036
vt 0.708156 0.212396
vt 0.643586 0.879921
vt 0.658665 0.756168
vt 0.014473 0.097514
vt 0.342047 0.056081
vt 0.930991 0.747650
vt 0.230264 0.757299
vt 0.788577 0.468563
vt 0.258506 0.467009
vt 0.699572 0.054754
vt 0.000000 0.922613
vt 0.872852 0.030457
vt 0.010868 0.834005
vt 0.839217 0.291396
vt 0.839217 0.412274
vt 0.938552 0.000000
vt 1.000000 0.099944
vt 0.826675 0.263309
vn 0.3270 -0.4340 -0.8394
vn 0.1335 -0.6217 -0.7718
vn 0.5737 -0.0803 -0.8151
vn 0.2578 0.9053 -0.3377
vn 0.2375 0.9024 -0.3595
vn 0.1880 0.8922 -0.4106
vn 0.2079 -0.7604 -0.6152
vn 0.2281 -0.7859 -0.5747
vn 0.0561 -0.5327 -0.8444
vn 0.0075 0.1369 -0.9906
vn 0.0051 0.1402 -0.9901
vn -0.0329 0.1899 -0.9813
vn 0.1795 0.9789 -0.0976
vn -0.4451 -0.8445 -0.2978
vn 0.5615 -0.6591 -0.5003
vn 0.5338 -0.6779 -0.5055
vn 0.6157 -0.6187 -0.4881
vn 0.7196 0.3067 -0.6229
vn 0.7198 0.3509 -0.5990
vn 0.7186 0.2788 -0.6371
vn 0.0193 0.9765 -0.2145
vn 0.3078 -0.9464 -0.0983
vn 0.4802 -0.7822 -0.3969
vn 0.5046 -0.7107 -0.4902
vn 0.5129 -0.6765 -0.5284
vn 0.2606 0.9151 -0.3078
vn 0.2607 0.9144 -0.3098
vn 0.2609 0.9133 -0.3128
vn 0.4641 -0.8822 -0.0792
vn 0.4637 -0.8824 -0.0798
vn 0.4705 -0.8796 -0.0703
vn 0.9745 0.2167 0.0574
vn 0.9763 0.2102 0.0519
vn 0.9726 0.2238 0.0634
vn 0.2143 0.9768 -0.0003
vn 0.2143 0.9768 0.0000
vn 0.2150 0.9766 0.0062
vn 0.3137 -0.9463 -0.0779
vn 0.9787 -0.1983 0.0535
vn 0.9783 -0.1999 0.0551
vn 0.9776 -0.2024 0.0576
vn 0.3773 0.9234 0.0701
vn 0.3741 0.9250 0.0663
vn 0.4219 0.8981 0.1244
vn 0.2036 -0.7815 0.5897
vn 0.2197 -0.7810 0.5847
vn 0.1841 -0.7819 0.5956
vn 0.7974 0.2302 0.5579
vn 0.6486 0.4905 0.5820
vn 0.8515 0.0667 0.5200
vn 0.2150 0.9766 0.0067
vn 0.1328 -0.9788 0.1561
vn 0.7675 -0.0295 0.6404
vn 0.7970 -0.1827 0.5757
vn 0.6975 0.1682 0.6966
vn 0.4761 0.8234 0.3086
vn 0.4826 0.7928 0.3723
vn 0.4871 0.6774 0.5512
vn 0.3336 0.7478 0.5740
vn 0.3388 0.7558 0.5603
vn 0.3722 0.8064 0.4595
vn 0.0701 0.9763 0.2049
vn -0.4023 -0.8893 0.2173
vn 0.3371 -0.7033 0.6259
vn 0.3494 -0.7227 0.5963
vn 0.3080 -0.6568 0.6883
vn 0.1442 0.7920 0.5933
vn 0.1477 0.7949 0.5885
vn 0.1861 0.8248 0.5339
vn 0.1924 -0.8246 0.5321
vn 0.1823 -0.8107 0.5563
vn 0.1496 -0.7623 0.6297
vn 0.0561 0.9778 0.2018
vn 0.0568 -0.9506 0.3053
vn -0.3203 -0.5538 0.7685
vn -0.3003 -0.5098 0.8062
vn -0.2827 -0.4715 0.8353
vn -0.0277 0.7869 0.6164
vn -0.0164 0.7756 0.6310
vn -0.0594 0.8166 0.5741
vn -0.0607 -0.8204 0.5685
vn -0.0983 -0.7992 0.5930
vn 0.0587 -0.8741 0.4821
vn -0.3129 0.6262 0.7141
vn -0.2545 0.4821 0.8383
vn -0.3418 0.7002 0.6267
vn -0.1438 -0.9783 0.1490
vn -0.1476 -0.9795 0.1373
vn -0.1441 -0.9784 0.1482
vn -0.7989 -0.2529 0.5457
vn -0.7958 -0.2174 0.5652
vn -0.7924 -0.1884 0.5802
vn -0.6112 0.7851 0.0999
vn -0.6118 0.7844 0.1025
vn -0.6397 0.6761 0.3656
vn -0.5502 -0.7272 0.4105
vn -0.5480 -0.7351 0.3992
vn -0.5438 -0.7488 0.3790
vn -0.8051 0.1626 0.5704
vn -0.8090 0.1519 0.5679
vn -0.8109 0.1465 0.5666
vn -0.0964 0.9931 -0.0666
vn -0.1434 -0.9782 0.1502
vn -0.9653 -0.2571 -0.0462
vn -0.9822 -0.1505 -0.1128
vn -0.9388 -0.3444 0.0109
vn -0.4718 0.8811 0.0323
vn -0.4801 0.8770 0.0223
vn -0.4645 0.8846 0.0411
vn -0.6130 -0.7847 -0.0918
vn -0.6135 -0.7844 -0.0913
vn -0.5027 -0.8456 -0.1795
vn -0.9503 0.3095 -0.0348
vn -0.9813 0.1500 -0.1208
vn -0.9842 0.0969 -0.1480
vn 0.2147 0.6578 -0.7220
vn -0.0866 -0.8734 -0.4792
vn -0.8765 -0.0384 -0.4798
vn -0.8333 0.0515 -0.5503
vn -0.9180 -0.1794 -0.3537
vn -0.3591 0.8928 -0.2718
vn -0.4208 0.8630 -0.2795
vn -0.3017 0.9162 -0.2637
vn -0.3302 -0.9093 -0.2532
vn -0.3359 -0.8874 -0.3159
vn -0.3436 -0.8152 -0.4663
vn -0.5477 0.5760 -0.6069
vn -0.5536 0.6112 -0.5656
vn -0.5580 0.6451 -0.5220
vn -0.2024 0.9781 -0.0491
vn -0.1684 0.0108 -0.9857
vn -0.1529 0.0380 -0.9875
vn -0.1774 -0.0052 -0.9841
vn -0.1843 0.7925 -0.5814
vn -0.1925 0.7873 -0.5858
vn -0.2748 0.7294 -0.6265
vn -0.0678 -0.9509 -0.3021
vn -0.0612 -0.9462 -0.3178
vn -0.0880 -0.9634 -0.2533
vn -0.1912 0.4833 -0.8543
vn -0.3197 0.3251 -0.8900
vn -0.0926 0.5854 -0.8054
vn -0.0828 0.9932 -0.0822
vn -0.1657 -0.9067 -0.3879
vn 0.2090 -0.7050 -0.6777
vn 0.2330 -0.7351 -0.6367
vn 0.0526 -0.4802 -0.8756
vn 0.0488 0.1318 -0.9901
vn 0.0497 0.1308 -0.9902
vn 0.0131 0.1744 -0.9846
vn 0.1942 0.9733 -0.1223
vn -0.4352 -0.8271 -0.3557
vn 0.2917 -0.3857 -0.8753
vn 0.1489 -0.5268 -0.8369
vn 0.5214 -0.0846 -0.8491
vn 0.2510 0.8773 -0.4090
vn 0.2749 0.8661 -0.4174
vn 0.1963 0.9002 -0.3888
vn 0.3287 -0.9379 -0.1112
vn 0.5334 -0.6982 -0.4776
vn 0.5440 -0.6306 -0.5536
vn 0.5473 -0.5921 -0.5915
vn 0.3029 0.8812 -0.3630
vn 0.3030 0.8792 -0.3678
vn 0.3031 0.8759 -0.3754
vn 0.5651 -0.6217 -0.5424
vn 0.5475 -0.6333 -0.5470
vn 0.6242 -0.5789 -0.5246
vn 0.7064 0.2754 -0.6520
vn 0.7094 0.3042 -0.6358
vn 0.7031 0.2496 -0.6659
vn 0.0489 0.9704 -0.2367
vn 0.3346 -0.9381 -0.0897
vn 0.9793 -0.1958 0.0510
vn 0.9792 -0.1962 0.0514
vn 0.9789 -0.1975 0.0529
vn 0.4344 0.8971 0.0806
vn 0.4248 0.9027 0.0678
vn 0.4743 0.8698 0.1359
vn 0.5133 -0.8538 -0.0872
vn 0.5137 -0.8536 -0.0866
vn 0.5187 -0.8513 -0.0788
vn 0.9771 0.2052 0.0570
vn 0.9778 0.2022 0.0540
vn 0.9754 0.2113 0.0631
vn 0.2361 0.9717 -0.0000
vn 0.1526 -0.9713 0.1822
vn 0.7471 -0.0672 0.6613
vn 0.7716 -0.1616 0.6153
vn 0.6813 0.1040 0.7246
vn 0.5071 0.7800 0.3668
vn 0.5080 0.7633 0.3992
vn 0.4984 0.6383 0.5866
vn 0.2367 -0.7378 0.6322
vn 0.2526 -0.7369 0.6270
vn 0.2181 -0.7385 0.6380
vn 0.7676 0.2363 0.5957
vn 0.6628 0.4129 0.6247
vn 0.8294 0.0829 0.5525
vn 0.2374 0.9712 0.0191
vn 0.3408 -0.6181 0.7084
vn 0.3532 -0.6367 0.6855
vn 0.3089 -0.5693 0.7619
vn 0.1531 0.7357 0.6598
vn 0.1553 0.7376 0.6571
vn 0.1929 0.7702 0.6079
vn 0.1999 -0.7704 0.6054
vn 0.1887 -0.7547 0.6283
vn 0.1520 -0.7005 0.6972
vn 0.3426 0.6631 0.6655
vn 0.3480 0.6714 0.6543
vn 0.3861 0.7297 0.5643
vn 0.0780 0.9678 0.2392
vn -0.3641 -0.8902 0.2736
vn -0.0386 0.7262 0.6864
vn -0.0292 0.7160 0.6975
vn -0.0701 0.7588 0.6475
vn -0.0719 -0.7648 0.6402
vn -0.1032 -0.7454 0.6586
vn 0.0482 -0.8267 0.5606
vn -0.3093 0.5331 0.7875
vn -0.2536 0.4157 0.8734
vn -0.3459 0.6119 0.7113
vn 0.0553 0.9705 0.2347
vn 0.0521 -0.9345 0.3521
vn -0.3119 -0.4698 0.8258
vn -0.2932 -0.4345 0.8516
vn -0.2733 -0.3970 0.8762
vn -0.5641 -0.6897 0.4540
vn -0.5635 -0.6946 0.4472
vn -0.5615 -0.7094 0.4260
vn -0.7841 0.1585 0.6001
vn -0.7857 0.1546 0.5990
vn -0.7869 0.1517 0.5981
vn -0.1203 0.9899 -0.0750
vn -0.1657 -0.9728 0.1621
vn -0.1651 -0.9725 0.1643
vn -0.1657 -0.9727 0.1623
vn -0.7809 -0.2286 0.5813
vn -0.7767 -0.2050 0.5956
vn -0.7712 -0.1780 0.6112
vn -0.6382 0.7622 0.1084
vn -0.6436 0.7508 0.1483
vn -0.6509 0.6424 0.4047
vn -0.6430 -0.7585 -0.1062
vn -0.6592 -0.7466 -0.0894
vn -0.5522 -0.8113 -0.1921
vn -0.9612 0.2725 -0.0424
vn -0.9797 0.1666 -0.1115
vn -0.9830 0.1118 -0.1458
vn 0.0781 0.7859 -0.6134
vn -0.1658 -0.9728 0.1619
vn -0.9728 -0.2246 -0.0571
vn -0.9813 -0.1621 -0.1037
vn -0.9499 -0.3124 0.0108
vn -0.5221 0.8522 0.0357
vn -0.5308 0.8471 0.0236
vn -0.5152 0.8559 0.0451
vn -0.3714 -0.8801 -0.2957
vn -0.3748 -0.8492 -0.3721
vn -0.3736 -0.7664 -0.5225
vn -0.5693 0.4966 -0.6552
vn -0.5779 0.5272 -0.6229
vn -0.5875 0.5665 -0.5778
vn -0.2232 0.9729 -0.0609
vn -0.0885 -0.8420 -0.5322
vn -0.8458 -0.0482 -0.5313
vn -0.8219 -0.0048 -0.5696
vn -0.8990 -0.1819 -0.3985
vn -0.4016 0.8557 -0.3264
vn -0.4514 0.8291 -0.3300
vn -0.3407 0.8838 -0.3208
vn -0.0835 -0.9217 -0.3789
vn -0.0754 -0.9144 -0.3977
vn -0.1067 -0.9403 -0.3233
vn -0.1983 0.3998 -0.8949
vn -0.2901 0.2905 -0.9118
vn -0.1058 0.4974 -0.8611
vn -0.0840 0.9908 -0.1064
vn -0.1695 -0.8806 -0.4424
vn -0.1647 -0.0149 -0.9862
vn -0.1553 -0.0000 -0.9879
vn -0.1722 -0.0268 -0.9847
vn -0.1897 0.7386 -0.6469
vn -0.1974 0.7333 -0.6506
vn -0.2694 0.6799 -0.6820
vn -0.1930 -0.8182 -0.5415
vn 0.2819 0.9076 -0.3110
vn 0.3414 -0.8967 -0.2816
vn 0.0569 0.0713 -0.9958
vn 0.4886 -0.7061 -0.5125
vn 0.7192 0.3741 -0.5855
vn 0.4653 -0.8141 -0.3476
vn 0.2602 0.9176 -0.3005
vn 0.4569 -0.8850 -0.0893
vn 0.9784 0.2018 0.0448
vn 0.9793 -0.1959 0.0512
vn 0.3120 0.9501 -0.0058
vn 0.2407 -0.7799 0.5778
vn 0.4978 0.6575 0.5655
vn 0.8043 -0.3020 0.5118
vn 0.4366 0.8959 0.0821
vn 0.2958 0.6868 0.6640
vn 0.3796 -0.7689 0.5145
vn 0.0908 0.7441 0.6618
vn 0.2137 -0.8522 0.4775
vn -0.3322 -0.5802 0.7437
vn 0.0345 0.7205 0.6926
vn -0.2134 -0.7206 0.6597
vn -0.2108 0.3774 0.9017
vn -0.8001 -0.2723 0.5346
vn -0.5454 0.8269 -0.1371
vn -0.5533 -0.7150 0.4273
vn -0.8027 0.1692 0.5719
vn -0.9846 -0.0736 -0.1587
vn -0.4906 0.8714 0.0093
vn -0.7080 -0.7062 -0.0028
vn -0.9297 0.3682 -0.0012
vn -0.7258 0.2094 -0.6552
vn -0.4870 0.8251 -0.2866
vn -0.3128 -0.9430 -0.1137
vn -0.5399 0.5383 -0.6471
vn -0.1419 0.0571 -0.9882
vn -0.0382 0.8683 -0.4947
vn -0.0433 -0.9322 -0.3594
vn -0.4187 0.1787 -0.8904
vn 0.3576 -0.8623 -0.3585
vn 0.0944 0.0765 -0.9926
vn -0.1533 -0.7401 -0.6548
vn 0.3227 0.8414 -0.4335
vn 0.5239 -0.7367 -0.4275
vn 0.3025 0.8886 -0.3449
vn 0.4968 -0.6644 -0.5584
vn 0.7112 0.3267 -0.6225
vn 0.9796 -0.1946 0.0496
vn 0.3667 0.9303 -0.0074
vn 0.5080 -0.8561 -0.0952
vn 0.9797 0.1951 0.0469
vn 0.7894 -0.2747 0.5490
vn 0.4802 0.8692 0.1176
vn 0.2723 -0.7356 0.6203
vn 0.5263 0.5748 0.6266
vn 0.3875 -0.6881 0.6135
vn 0.1009 0.6854 0.7211
vn 0.2241 -0.8027 0.5528
vn 0.3012 0.5979 0.7428
vn 0.0202 0.6588 0.7521
vn -0.2128 -0.6664 0.7146
vn -0.2056 0.3167 0.9260
vn -0.3260 -0.4968 0.8043
vn -0.5654 -0.6768 0.4714
vn -0.7826 0.1618 0.6011
vn -0.7840 -0.2483 0.5690
vn -0.5835 0.8017 -0.1293
vn -0.7336 -0.6796 -0.0039
vn -0.9427 0.3336 -0.0009
vn -0.9835 -0.0843 -0.1599
vn -0.5405 0.8413 0.0100
vn -0.3587 -0.9211 -0.1515
vn -0.5558 0.4534 -0.6968
vn -0.7170 0.1417 -0.6825
vn -0.5201 0.7864 -0.3332
vn -0.0557 -0.8950 -0.4425
vn -0.3845 0.1631 -0.9086
vn -0.1464 0.0139 -0.9891
vn -0.0611 0.8138 -0.5779
f 2/1/1 4/2/2 1/3/3
f 6/4/4 8/5/5 5/6/6
f 9/7/7 4/2/8 10/8/9
f 2/9/10 8/5/11 3/10/12
f 6/11/13 11/12/13 7/13/13
f 12/14/14 9/7/14 10/8/14
f 4/2/15 14/15/16 10/8/17
f 8/16/18 16/17/19 3/18/20
f 7/19/21 11/20/21 17/21/21
f 12/14/22 10/8/22 14/15/22
f 4/2/23 16/22/24 13/23/25
f 7/19/26 15/24/27 8/5/28
f 13/23/29 19/25/30 14/15/31
f 15/26/32 21/27/33 16/17/34
f 17/28/35 11/29/36 22/30/37
f 12/14/38 14/15/38 19/25/38
f 13/31/39 21/27/40 18/32/41
f 15/33/42 22/30/43 20/34/44
f 19/35/45 23/36/46 24/37/47
f 20/34/48 26/38/49 21/39/50
f 22/30/37 11/29/36 27/40/51
f 12/41/52 19/35/52 24/37/52
f 21/42/53 23/36/54 18/43/55
f 20/34/56 27/40/57 25/44/58
f 26/38/59 28/45/60 29/46/61
f 27/40/62 11/29/62 30/47/62
f 12/41/63 24/37/63 31/48/63
f 26/49/64 32/50/65 23/36/66
f 25/44/67 30/47/68 28/45/69
f 23/36/70 31/48/71 24/37/72
f 30/47/73 11/29/73 33/51/73
f 12/41/74 31/48/74 34/52/74
f 32/50/75 35/53/76 36/54/77
f 30/47/78 37/55/79 28/45/80
f 32/50/81 34/52/82 31/48/83
f 28/45/84 35/56/85 29/46/86
f 12/14/87 34/57/88 38/58/89
f 36/59/90 39/60/91 40/61/92
f 33/62/93 42/63/94 37/64/95
f 34/65/96 40/61/97 38/66/98
f 35/67/99 42/68/100 39/60/101
f 33/62/102 11/20/102 41/69/102
f 12/14/87 38/58/89 43/70/103
f 39/60/104 45/71/105 40/61/106
f 42/63/107 46/72/108 47/73/109
f 38/58/110 45/74/111 43/70/112
f 39/60/113 47/75/114 44/76/115
f 41/69/116 11/20/116 46/72/116
f 12/14/117 43/70/117 48/77/117
f 44/78/118 50/79/119 45/80/120
f 46/72/121 52/81/122 47/73/123
f 45/74/124 48/77/125 43/70/126
f 44/78/127 52/81/128 49/82/129
f 46/72/130 11/20/130 51/83/130
f 49/82/131 1/84/132 50/79/133
f 51/83/134 5/6/135 52/81/136
f 50/85/137 9/7/138 48/77/139
f 52/81/140 2/9/141 49/82/142
f 51/83/143 11/20/143 6/4/143
f 12/14/144 48/77/144 9/7/144
f 53/86/145 55/87/146 56/88/147
f 57/89/148 59/90/149 60/91/150
f 61/92/151 62/93/151 63/94/151
f 64/95/152 53/86/152 56/88/152
f 57/96/153 55/87/154 54/97/155
f 58/98/156 63/99/157 59/90/158
f 64/95/159 56/88/159 65/100/159
f 55/87/160 66/101/161 67/102/162
f 63/103/163 69/104/164 59/105/165
f 55/87/166 65/100/167 56/88/168
f 59/105/169 66/106/170 60/107/171
f 63/108/172 62/109/172 68/110/172
f 64/95/173 65/100/173 70/111/173
f 67/112/174 71/113/175 72/114/176
f 69/115/177 73/116/178 74/117/179
f 67/102/180 70/111/181 65/100/182
f 69/104/183 71/113/184 66/106/185
f 68/118/186 62/119/186 73/116/186
f 64/120/187 70/121/187 75/122/187
f 71/123/188 77/124/189 72/125/190
f 74/117/191 78/126/192 79/127/193
f 70/121/194 77/124/195 75/122/196
f 74/117/197 76/128/198 71/129/199
f 73/116/200 62/119/200 78/126/200
f 76/130/201 81/131/202 77/124/203
f 79/127/204 82/132/205 83/133/206
f 77/124/207 84/134/208 75/122/209
f 76/128/210 83/133/211 80/135/212
f 78/126/213 62/119/213 82/132/213
f 64/120/214 75/122/214 84/134/214
f 82/132/215 86/136/216 83/133/217
f 81/131/218 88/137/219 84/134/220
f 83/133/221 89/138/222 80/135/223
f 82/132/224 62/119/224 85/139/224
f 64/120/225 84/134/225 88/137/225
f 81/140/226 89/141/227 87/142/228
f 88/143/229 90/144/230 91/145/231
f 89/141/232 92/146/233 93/147/234
f 85/148/235 62/149/235 94/150/235
f 64/95/236 88/151/237 91/152/238
f 87/142/239 93/147/240 90/144/241
f 85/148/242 92/153/243 86/154/244
f 91/152/245 95/155/246 96/156/247
f 93/147/248 97/157/249 98/158/250
f 94/150/251 62/149/251 99/159/251
f 64/95/236 91/152/238 96/156/252
f 93/147/253 95/160/254 90/144/255
f 92/153/256 99/159/257 97/161/258
f 95/155/259 101/162/260 96/156/261
f 98/163/262 102/164/263 103/165/264
f 99/159/265 62/149/265 104/166/265
f 64/95/266 96/156/266 101/162/266
f 98/163/267 100/167/268 95/168/269
f 99/159/270 102/164/271 97/161/272
f 100/169/273 53/86/274 101/162/275
f 102/164/276 57/89/277 103/165/278
f 104/166/279 62/149/279 61/170/279
f 64/95/280 101/162/280 53/86/280
f 103/165/281 54/171/282 100/167/283
f 104/166/284 58/98/285 102/164/286
f 2/1/1 3/172/287 4/2/2
f 6/4/4 7/19/288 8/5/5
f 9/7/7 1/3/289 4/2/8
f 2/9/10 5/6/290 8/5/11
f 4/2/15 13/23/291 14/15/16
f 8/16/18 15/26/292 16/17/19
f 4/2/23 3/172/293 16/22/24
f 7/19/26 17/21/294 15/24/27
f 13/23/29 18/173/295 19/25/30
f 15/26/32 20/174/296 21/27/33
f 13/31/39 16/17/297 21/27/40
f 15/33/42 17/28/298 22/30/43
f 19/35/45 18/43/299 23/36/46
f 20/34/48 25/44/300 26/38/49
f 21/42/53 26/49/301 23/36/54
f 20/34/56 22/30/302 27/40/57
f 26/38/59 25/44/303 28/45/60
f 26/49/64 29/175/304 32/50/65
f 25/44/67 27/40/305 30/47/68
f 23/36/70 32/50/306 31/48/71
f 32/50/75 29/175/307 35/53/76
f 30/47/78 33/51/308 37/55/79
f 32/50/81 36/54/309 34/52/82
f 28/45/84 37/55/310 35/56/85
f 36/59/90 35/67/311 39/60/91
f 33/62/93 41/69/312 42/63/94
f 34/65/96 36/59/313 40/61/97
f 35/67/99 37/176/314 42/68/100
f 39/60/104 44/76/315 45/71/105
f 42/63/107 41/69/316 46/72/108
f 38/58/110 40/177/317 45/74/111
f 39/60/113 42/68/318 47/75/114
f 44/78/118 49/82/319 50/79/119
f 46/72/121 51/83/320 52/81/122
f 45/74/124 50/85/321 48/77/125
f 44/78/127 47/73/322 52/81/128
f 49/82/131 2/9/323 1/84/132
f 51/83/134 6/4/324 5/6/135
f 50/85/137 1/3/325 9/7/138
f 52/81/140 5/6/326 2/9/141
f 53/86/145 54/97/327 55/87/146
f 57/89/148 58/98/328 59/90/149
f 57/96/153 60/178/329 55/87/154
f 58/98/156 61/170/330 63/99/157
f 55/87/160 60/178/331 66/101/161
f 63/103/163 68/179/332 69/104/164
f 55/87/166 67/102/333 65/100/167
f 59/105/169 69/104/334 66/106/170
f 67/112/174 66/106/335 71/113/175
f 69/115/177 68/118/336 73/116/178
f 67/102/180 72/180/337 70/111/181
f 69/104/183 74/181/338 71/113/184
f 71/123/188 76/130/339 77/124/189
f 74/117/191 73/116/340 78/126/192
f 70/121/194 72/125/341 77/124/195
f 74/117/197 79/127/342 76/128/198
f 76/130/201 80/182/343 81/131/202
f 79/127/204 78/126/344 82/132/205
f 77/124/207 81/131/345 84/134/208
f 76/128/210 79/127/346 83/133/211
f 82/132/215 85/139/347 86/136/216
f 81/131/218 87/183/348 88/137/219
f 83/133/221 86/136/349 89/138/222
f 81/140/226 80/184/350 89/141/227
f 88/143/229 87/142/351 90/144/230
f 89/141/232 86/185/352 92/146/233
f 87/142/239 89/141/353 93/147/240
f 85/148/242 94/150/354 92/153/243
f 91/152/245 90/186/355 95/155/246
f 93/147/248 92/146/356 97/157/249
f 93/147/253 98/158/357 95/160/254
f 92/153/256 94/150/358 99/159/257
f 95/155/259 100/169/359 101/162/260
f 98/163/262 97/161/360 102/164/263
f 98/163/267 103/165/361 100/167/268
f 99/159/270 104/166/362 102/164/271
f 100/169/273 54/97/363 53/86/274
f 102/164/276 58/98/364 57/89/277
f 103/165/281 57/89/365 54/171/282
f 104/166/284 61/170/366 58/98/285
